%TF.GenerationSoftware,KiCad,Pcbnew,(7.0.0)*%
%TF.CreationDate,2024-09-05T20:10:41+09:00*%
%TF.ProjectId,iso6,69736f36-2e6b-4696-9361-645f70636258,rev?*%
%TF.SameCoordinates,Original*%
%TF.FileFunction,Copper,L2,Bot*%
%TF.FilePolarity,Positive*%
%FSLAX46Y46*%
G04 Gerber Fmt 4.6, Leading zero omitted, Abs format (unit mm)*
G04 Created by KiCad (PCBNEW (7.0.0)) date 2024-09-05 20:10:41*
%MOMM*%
%LPD*%
G01*
G04 APERTURE LIST*
%TA.AperFunction,ComponentPad*%
%ADD10R,1.397000X1.397000*%
%TD*%
%TA.AperFunction,SMDPad,CuDef*%
%ADD11R,1.300000X0.950000*%
%TD*%
%TA.AperFunction,ComponentPad*%
%ADD12C,1.397000*%
%TD*%
%TA.AperFunction,ComponentPad*%
%ADD13C,2.000000*%
%TD*%
%TA.AperFunction,ComponentPad*%
%ADD14C,1.524000*%
%TD*%
%TA.AperFunction,ComponentPad*%
%ADD15O,2.500000X2.000000*%
%TD*%
%TA.AperFunction,ComponentPad*%
%ADD16C,2.200000*%
%TD*%
%TA.AperFunction,SMDPad,CuDef*%
%ADD17R,0.950000X1.300000*%
%TD*%
%TA.AperFunction,ViaPad*%
%ADD18C,0.800000*%
%TD*%
%TA.AperFunction,Conductor*%
%ADD19C,0.250000*%
%TD*%
G04 APERTURE END LIST*
D10*
%TO.P,D3,1,K*%
%TO.N,Row0*%
X102614999Y-52599999D03*
D11*
X104649999Y-52599999D03*
%TO.P,D3,2,A*%
%TO.N,Net-(D3-A)*%
X108199999Y-52599999D03*
D12*
X110235000Y-52600000D03*
%TD*%
D13*
%TO.P,SW7,1,1*%
%TO.N,reset*%
X107156300Y-40481200D03*
%TO.P,SW7,2,2*%
%TO.N,GND*%
X107156300Y-46981200D03*
%TD*%
D14*
%TO.P,U1,1,TX0/D3*%
%TO.N,unconnected-(U1-TX0{slash}D3-Pad1)*%
X51580000Y-37600000D03*
%TO.P,U1,2,RX1/D2*%
%TO.N,unconnected-(U1-RX1{slash}D2-Pad2)*%
X54120000Y-37600000D03*
%TO.P,U1,3,GND*%
%TO.N,GND*%
X56660000Y-37600000D03*
%TO.P,U1,4,GND*%
X59200000Y-37600000D03*
%TO.P,U1,5,2/D1/SDA*%
%TO.N,unconnected-(U1-2{slash}D1{slash}SDA-Pad5)*%
X61740000Y-37600000D03*
%TO.P,U1,6,3/D0/SCL*%
%TO.N,unconnected-(U1-3{slash}D0{slash}SCL-Pad6)*%
X64280000Y-37600000D03*
%TO.P,U1,7,4/D4*%
%TO.N,Row0*%
X66820000Y-37600000D03*
%TO.P,U1,8,5/C6*%
%TO.N,Row1*%
X69360000Y-37600000D03*
%TO.P,U1,9,6/D7*%
%TO.N,unconnected-(U1-6{slash}D7-Pad9)*%
X71900000Y-37600000D03*
%TO.P,U1,10,7/E6*%
%TO.N,unconnected-(U1-7{slash}E6-Pad10)*%
X74440000Y-37600000D03*
%TO.P,U1,11,8/B4*%
%TO.N,unconnected-(U1-8{slash}B4-Pad11)*%
X76980000Y-37600000D03*
%TO.P,U1,12,9/B5*%
%TO.N,unconnected-(U1-9{slash}B5-Pad12)*%
X79520000Y-37600000D03*
%TO.P,U1,13,B6/10*%
%TO.N,unconnected-(U1-B6{slash}10-Pad13)*%
X79520000Y-52820000D03*
%TO.P,U1,14,B2/16*%
%TO.N,unconnected-(U1-B2{slash}16-Pad14)*%
X76980000Y-52820000D03*
%TO.P,U1,15,B3/14*%
%TO.N,unconnected-(U1-B3{slash}14-Pad15)*%
X74440000Y-52820000D03*
%TO.P,U1,16,B1/15*%
%TO.N,unconnected-(U1-B1{slash}15-Pad16)*%
X71900000Y-52820000D03*
%TO.P,U1,17,F7/A0*%
%TO.N,unconnected-(U1-F7{slash}A0-Pad17)*%
X69360000Y-52820000D03*
%TO.P,U1,18,F6/A1*%
%TO.N,Col2*%
X66820000Y-52820000D03*
%TO.P,U1,19,F5/A2*%
%TO.N,Col1*%
X64280000Y-52820000D03*
%TO.P,U1,20,F4/A3*%
%TO.N,Col0*%
X61740000Y-52820000D03*
%TO.P,U1,21,VCC*%
%TO.N,VCC*%
X59200000Y-52820000D03*
%TO.P,U1,22,RST*%
%TO.N,reset*%
X56660000Y-52820000D03*
%TO.P,U1,23,GND*%
%TO.N,GND*%
X54120000Y-52820000D03*
%TO.P,U1,24,RAW*%
%TO.N,unconnected-(U1-RAW-Pad24)*%
X51580000Y-52820000D03*
%TD*%
D10*
%TO.P,D2,1,K*%
%TO.N,Row0*%
X90414999Y-52599999D03*
D11*
X92449999Y-52599999D03*
%TO.P,D2,2,A*%
%TO.N,Net-(D2-A)*%
X95999999Y-52599999D03*
D12*
X98035000Y-52600000D03*
%TD*%
D15*
%TO.P,SW2,1,1*%
%TO.N,Col1*%
X72231299Y-43021199D03*
%TO.P,SW2,2,2*%
%TO.N,Net-(D2-A)*%
X78581299Y-40481199D03*
%TD*%
%TO.P,SW5,1,1*%
%TO.N,Col1*%
X88899999Y-62071199D03*
%TO.P,SW5,2,2*%
%TO.N,Net-(D5-A)*%
X95249999Y-59531199D03*
%TD*%
%TO.P,SW4,1,1*%
%TO.N,Col0*%
X57943799Y-62071199D03*
%TO.P,SW4,2,2*%
%TO.N,Net-(D4-A)*%
X64293799Y-59531199D03*
%TD*%
D10*
%TO.P,D4,1,K*%
%TO.N,Row1*%
X72614999Y-61199999D03*
D11*
X74649999Y-61199999D03*
%TO.P,D4,2,A*%
%TO.N,Net-(D4-A)*%
X78199999Y-61199999D03*
D12*
X80235000Y-61200000D03*
%TD*%
D16*
%TO.P,SW6,1,1*%
%TO.N,Col2*%
X123840000Y-50020000D03*
%TO.P,SW6,2,2*%
%TO.N,Net-(D6-A)*%
X117490000Y-52560000D03*
%TD*%
D10*
%TO.P,D6,1,K*%
%TO.N,Row1*%
X118239999Y-71437499D03*
D11*
X120274999Y-71437499D03*
%TO.P,D6,2,A*%
%TO.N,Net-(D6-A)*%
X123824999Y-71437499D03*
D12*
X125860000Y-71437500D03*
%TD*%
D10*
%TO.P,D5,1,K*%
%TO.N,Row1*%
X72599999Y-66599999D03*
D11*
X74634999Y-66599999D03*
%TO.P,D5,2,A*%
%TO.N,Net-(D5-A)*%
X78184999Y-66599999D03*
D12*
X80220000Y-66600000D03*
%TD*%
D10*
%TO.P,D1,1,K*%
%TO.N,Row0*%
X85799999Y-48984999D03*
D17*
X85799999Y-46949999D03*
%TO.P,D1,2,A*%
%TO.N,Net-(D1-A)*%
X85799999Y-43399999D03*
D12*
X85800000Y-41365000D03*
%TD*%
D15*
%TO.P,SW1,1,1*%
%TO.N,Col0*%
X53181299Y-43021199D03*
%TO.P,SW1,2,2*%
%TO.N,Net-(D1-A)*%
X59531299Y-40481199D03*
%TD*%
%TO.P,SW3,1,1*%
%TO.N,Col2*%
X91289999Y-43019999D03*
%TO.P,SW3,2,2*%
%TO.N,Net-(D3-A)*%
X97639999Y-40479999D03*
%TD*%
D18*
%TO.N,reset*%
X101103100Y-42131500D03*
%TD*%
D19*
%TO.N,Net-(D1-A)*%
X85800000Y-41365000D02*
X85800000Y-43400000D01*
%TO.N,Row0*%
X93499900Y-54450000D02*
X99741400Y-54450000D01*
X99741400Y-54450000D02*
X101591400Y-52600000D01*
X66820000Y-37600000D02*
X68370000Y-36050000D01*
X68370000Y-36050000D02*
X70125000Y-36050000D01*
X90415000Y-52600000D02*
X92450000Y-52600000D01*
X80842800Y-42792900D02*
X84999900Y-46950000D01*
X85800000Y-47350000D02*
X85800000Y-48985000D01*
X92450000Y-53400100D02*
X93499900Y-54450000D01*
X104650000Y-52600000D02*
X102615000Y-52600000D01*
X101591400Y-52600000D02*
X102615000Y-52600000D01*
X85400000Y-46950000D02*
X85800000Y-47350000D01*
X70630000Y-36555000D02*
X70630000Y-38655000D01*
X70125000Y-36050000D02*
X70630000Y-36555000D01*
X70630000Y-38655000D02*
X74767900Y-42792900D01*
X74767900Y-42792900D02*
X80842800Y-42792900D01*
X84999900Y-46950000D02*
X85400000Y-46950000D01*
X92450000Y-52600000D02*
X92450000Y-53400100D01*
X85800000Y-46950000D02*
X85400000Y-46950000D01*
%TO.N,Net-(D2-A)*%
X96000000Y-52600000D02*
X92275000Y-48875000D01*
X89850000Y-48875000D02*
X86425000Y-45450000D01*
X80456200Y-40481200D02*
X78581300Y-40481200D01*
X98035000Y-52600000D02*
X96000000Y-52600000D01*
X85425000Y-45450000D02*
X80456200Y-40481200D01*
X86425000Y-45450000D02*
X85425000Y-45450000D01*
X92275000Y-48875000D02*
X89850000Y-48875000D01*
%TO.N,Net-(D3-A)*%
X98375000Y-47125001D02*
X102099999Y-50850000D01*
X106450000Y-50850000D02*
X108200000Y-52600000D01*
X97640000Y-40480000D02*
X97640000Y-42390000D01*
X98375000Y-43125000D02*
X98375000Y-47125001D01*
X110235000Y-52600000D02*
X108200000Y-52600000D01*
X97640000Y-42390000D02*
X98375000Y-43125000D01*
X102099999Y-50850000D02*
X106450000Y-50850000D01*
%TO.N,Net-(D4-A)*%
X80235000Y-61200000D02*
X78200000Y-61200000D01*
%TO.N,Row1*%
X120275000Y-71437500D02*
X118240000Y-71437500D01*
X70050000Y-61200000D02*
X72615000Y-61200000D01*
X74650000Y-61200000D02*
X74650000Y-61600000D01*
X74650000Y-61600000D02*
X74635000Y-61600000D01*
X74038600Y-61600000D02*
X73638600Y-61200000D01*
X90930400Y-71437500D02*
X118240000Y-71437500D01*
X74635000Y-65548300D02*
X74635000Y-65799900D01*
X74635000Y-65548300D02*
X74635000Y-65515000D01*
X74635000Y-65515000D02*
X75950000Y-64200000D01*
X69360000Y-37600000D02*
X69360000Y-43240000D01*
X72600000Y-66600000D02*
X73623600Y-66600000D01*
X75950000Y-64200000D02*
X83692900Y-64200000D01*
X74635000Y-66199900D02*
X74023700Y-66199900D01*
X74635000Y-66199900D02*
X74635000Y-65799900D01*
X74635000Y-61600000D02*
X74635000Y-65548300D01*
X74023700Y-66199900D02*
X73623600Y-66600000D01*
X83692900Y-64200000D02*
X90930400Y-71437500D01*
X74635000Y-61600000D02*
X74038600Y-61600000D01*
X72615000Y-61200000D02*
X73638600Y-61200000D01*
X63050000Y-54200000D02*
X70050000Y-61200000D01*
X74635000Y-66600000D02*
X74635000Y-66199900D01*
X69360000Y-43240000D02*
X63050000Y-49550000D01*
X63050000Y-49550000D02*
X63050000Y-54200000D01*
%TO.N,Net-(D5-A)*%
X80220000Y-66600000D02*
X79160100Y-66600000D01*
X78185000Y-66600000D02*
X79160100Y-66600000D01*
%TO.N,Net-(D6-A)*%
X117490000Y-52560000D02*
X118225000Y-53295000D01*
X118225000Y-53295000D02*
X118225000Y-65037400D01*
X118225000Y-65037400D02*
X123825000Y-70637400D01*
X123825000Y-70637400D02*
X123825000Y-71437500D01*
X125860000Y-71437500D02*
X123825000Y-71437500D01*
%TO.N,Col0*%
X60650000Y-53910000D02*
X61740000Y-52820000D01*
X57943800Y-60746100D02*
X60650000Y-58039900D01*
X59145000Y-50225000D02*
X55750000Y-50225000D01*
X57943800Y-62071200D02*
X57943800Y-60746100D01*
X60650000Y-58039900D02*
X60650000Y-53910000D01*
X53900000Y-43739900D02*
X53181300Y-43021200D01*
X53900000Y-48375000D02*
X53900000Y-43739900D01*
X55750000Y-50225000D02*
X53900000Y-48375000D01*
X61740000Y-52820000D02*
X59145000Y-50225000D01*
%TO.N,Col1*%
X88900000Y-62071200D02*
X88900000Y-59075000D01*
X72231300Y-44346300D02*
X72231300Y-43021200D01*
X73350000Y-49875000D02*
X72328100Y-48853100D01*
X72328100Y-48853100D02*
X72328100Y-47252900D01*
X76775000Y-49875000D02*
X73350000Y-49875000D01*
X71356000Y-48225000D02*
X68875000Y-48225000D01*
X88900000Y-59075000D02*
X81175000Y-51350000D01*
X73000000Y-45115000D02*
X72231300Y-44346300D01*
X81175000Y-51350000D02*
X78250000Y-51350000D01*
X68875000Y-48225000D02*
X64280000Y-52820000D01*
X72328100Y-47252900D02*
X73000000Y-46581000D01*
X72328100Y-47252900D02*
X71356000Y-48225000D01*
X73000000Y-46581000D02*
X73000000Y-45115000D01*
X78250000Y-51350000D02*
X76775000Y-49875000D01*
%TO.N,reset*%
X101103100Y-42131500D02*
X105506000Y-42131500D01*
X105506000Y-42131500D02*
X107156300Y-40481200D01*
%TD*%
M02*
