%TF.GenerationSoftware,KiCad,Pcbnew,(7.0.0)*%
%TF.CreationDate,2024-09-05T20:10:41+09:00*%
%TF.ProjectId,iso6,69736f36-2e6b-4696-9361-645f70636258,rev?*%
%TF.SameCoordinates,Original*%
%TF.FileFunction,Legend,Top*%
%TF.FilePolarity,Positive*%
%FSLAX46Y46*%
G04 Gerber Fmt 4.6, Leading zero omitted, Abs format (unit mm)*
G04 Created by KiCad (PCBNEW (7.0.0)) date 2024-09-05 20:10:41*
%MOMM*%
%LPD*%
G01*
G04 APERTURE LIST*
%ADD10C,0.150000*%
%ADD11C,0.120000*%
%ADD12R,1.397000X1.397000*%
%ADD13C,1.397000*%
%ADD14C,2.000000*%
%ADD15C,1.524000*%
%ADD16O,2.500000X2.000000*%
%ADD17C,2.200000*%
%ADD18C,1.900000*%
%ADD19C,4.000000*%
%ADD20C,3.050000*%
%ADD21C,1.700000*%
G04 APERTURE END LIST*
D10*
%TO.C,U1*%
%TO.C,SW6*%
X119966667Y-47545761D02*
X120109524Y-47593380D01*
X120109524Y-47593380D02*
X120347619Y-47593380D01*
X120347619Y-47593380D02*
X120442857Y-47545761D01*
X120442857Y-47545761D02*
X120490476Y-47498142D01*
X120490476Y-47498142D02*
X120538095Y-47402904D01*
X120538095Y-47402904D02*
X120538095Y-47307666D01*
X120538095Y-47307666D02*
X120490476Y-47212428D01*
X120490476Y-47212428D02*
X120442857Y-47164809D01*
X120442857Y-47164809D02*
X120347619Y-47117190D01*
X120347619Y-47117190D02*
X120157143Y-47069571D01*
X120157143Y-47069571D02*
X120061905Y-47021952D01*
X120061905Y-47021952D02*
X120014286Y-46974333D01*
X120014286Y-46974333D02*
X119966667Y-46879095D01*
X119966667Y-46879095D02*
X119966667Y-46783857D01*
X119966667Y-46783857D02*
X120014286Y-46688619D01*
X120014286Y-46688619D02*
X120061905Y-46641000D01*
X120061905Y-46641000D02*
X120157143Y-46593380D01*
X120157143Y-46593380D02*
X120395238Y-46593380D01*
X120395238Y-46593380D02*
X120538095Y-46641000D01*
X120871429Y-46593380D02*
X121109524Y-47593380D01*
X121109524Y-47593380D02*
X121300000Y-46879095D01*
X121300000Y-46879095D02*
X121490476Y-47593380D01*
X121490476Y-47593380D02*
X121728572Y-46593380D01*
X122538095Y-46593380D02*
X122347619Y-46593380D01*
X122347619Y-46593380D02*
X122252381Y-46641000D01*
X122252381Y-46641000D02*
X122204762Y-46688619D01*
X122204762Y-46688619D02*
X122109524Y-46831476D01*
X122109524Y-46831476D02*
X122061905Y-47021952D01*
X122061905Y-47021952D02*
X122061905Y-47402904D01*
X122061905Y-47402904D02*
X122109524Y-47498142D01*
X122109524Y-47498142D02*
X122157143Y-47545761D01*
X122157143Y-47545761D02*
X122252381Y-47593380D01*
X122252381Y-47593380D02*
X122442857Y-47593380D01*
X122442857Y-47593380D02*
X122538095Y-47545761D01*
X122538095Y-47545761D02*
X122585714Y-47498142D01*
X122585714Y-47498142D02*
X122633333Y-47402904D01*
X122633333Y-47402904D02*
X122633333Y-47164809D01*
X122633333Y-47164809D02*
X122585714Y-47069571D01*
X122585714Y-47069571D02*
X122538095Y-47021952D01*
X122538095Y-47021952D02*
X122442857Y-46974333D01*
X122442857Y-46974333D02*
X122252381Y-46974333D01*
X122252381Y-46974333D02*
X122157143Y-47021952D01*
X122157143Y-47021952D02*
X122109524Y-47069571D01*
X122109524Y-47069571D02*
X122061905Y-47164809D01*
%TO.C,U1*%
X50310000Y-54090000D02*
X50310000Y-51550000D01*
X80790000Y-54090000D02*
X50310000Y-54090000D01*
X50310000Y-51550000D02*
X80790000Y-51550000D01*
X80790000Y-51550000D02*
X80790000Y-54090000D01*
X50310000Y-38870000D02*
X50310000Y-36330000D01*
X80790000Y-38870000D02*
X50310000Y-38870000D01*
X50310000Y-36330000D02*
X80790000Y-36330000D01*
X80790000Y-36330000D02*
X80790000Y-38870000D01*
D11*
%TO.C,SW6*%
X114315000Y-48115000D02*
X128285000Y-48115000D01*
X114315000Y-62085000D02*
X114315000Y-48115000D01*
X128285000Y-48115000D02*
X128285000Y-62085000D01*
X128285000Y-62085000D02*
X114315000Y-62085000D01*
%TD*%
D12*
%TO.C,D3*%
X102614999Y-52599999D03*
D13*
X110235000Y-52600000D03*
%TD*%
D14*
%TO.C,SW7*%
X107156300Y-40481200D03*
X107156300Y-46981200D03*
%TD*%
D15*
%TO.C,U1*%
X51580000Y-37600000D03*
X54120000Y-37600000D03*
X56660000Y-37600000D03*
X59200000Y-37600000D03*
X61740000Y-37600000D03*
X64280000Y-37600000D03*
X66820000Y-37600000D03*
X69360000Y-37600000D03*
X71900000Y-37600000D03*
X74440000Y-37600000D03*
X76980000Y-37600000D03*
X79520000Y-37600000D03*
X79520000Y-52820000D03*
X76980000Y-52820000D03*
X74440000Y-52820000D03*
X71900000Y-52820000D03*
X69360000Y-52820000D03*
X66820000Y-52820000D03*
X64280000Y-52820000D03*
X61740000Y-52820000D03*
X59200000Y-52820000D03*
X56660000Y-52820000D03*
X54120000Y-52820000D03*
X51580000Y-52820000D03*
%TD*%
D12*
%TO.C,D2*%
X90414999Y-52599999D03*
D13*
X98035000Y-52600000D03*
%TD*%
D16*
%TO.C,SW2*%
X72231299Y-43021199D03*
X78581299Y-40481199D03*
%TD*%
%TO.C,SW5*%
X88899999Y-62071199D03*
X95249999Y-59531199D03*
%TD*%
%TO.C,SW4*%
X57943799Y-62071199D03*
X64293799Y-59531199D03*
%TD*%
D12*
%TO.C,D4*%
X72614999Y-61199999D03*
D13*
X80235000Y-61200000D03*
%TD*%
D12*
%TO.C,D6*%
X118239999Y-71437499D03*
D13*
X125860000Y-71437500D03*
%TD*%
D12*
%TO.C,D5*%
X72599999Y-66599999D03*
D13*
X80220000Y-66600000D03*
%TD*%
D12*
%TO.C,D1*%
X85799999Y-48984999D03*
D13*
X85800000Y-41365000D03*
%TD*%
D16*
%TO.C,SW1*%
X53181299Y-43021199D03*
X59531299Y-40481199D03*
%TD*%
%TO.C,SW3*%
X91289999Y-43019999D03*
X97639999Y-40479999D03*
%TD*%
%LPC*%
D12*
%TO.C,D3*%
X102614999Y-52599999D03*
D13*
X110235000Y-52600000D03*
%TD*%
D14*
%TO.C,SW7*%
X107156300Y-40481200D03*
X107156300Y-46981200D03*
%TD*%
D17*
%TO.C,Ref00*%
X85650000Y-36875000D03*
%TD*%
D12*
%TO.C,D2*%
X90414999Y-52599999D03*
D13*
X98035000Y-52600000D03*
%TD*%
D18*
%TO.C,SW2*%
X70961300Y-45561200D03*
D19*
X76041300Y-45561200D03*
D18*
X81121300Y-45561200D03*
%TD*%
%TO.C,SW5*%
X87630000Y-64611200D03*
D19*
X92710000Y-64611200D03*
D18*
X97790000Y-64611200D03*
%TD*%
%TO.C,SW4*%
X56673800Y-64611200D03*
D19*
X61753800Y-64611200D03*
D18*
X66833800Y-64611200D03*
%TD*%
D12*
%TO.C,D4*%
X72614999Y-61199999D03*
D13*
X80235000Y-61200000D03*
%TD*%
D20*
%TO.C,SW6*%
X114300000Y-43200000D03*
X114300000Y-67000000D03*
D21*
X116220000Y-55100000D03*
D19*
X121300000Y-55100000D03*
D21*
X126380000Y-55100000D03*
D19*
X129540000Y-43200000D03*
X129540000Y-67000000D03*
D17*
X123840000Y-50020000D03*
X117490000Y-52560000D03*
%TD*%
D12*
%TO.C,D6*%
X118239999Y-71437499D03*
D13*
X125860000Y-71437500D03*
%TD*%
D17*
%TO.C,Ref01*%
X132000000Y-36725000D03*
%TD*%
%TO.C,Ref03*%
X132000000Y-72800000D03*
%TD*%
D12*
%TO.C,D5*%
X72599999Y-66599999D03*
D13*
X80220000Y-66600000D03*
%TD*%
D17*
%TO.C,Ref02*%
X49025000Y-72375000D03*
%TD*%
D12*
%TO.C,D1*%
X85799999Y-48984999D03*
D13*
X85800000Y-41365000D03*
%TD*%
D18*
%TO.C,SW1*%
X51911300Y-45561200D03*
D19*
X56991300Y-45561200D03*
D18*
X62071300Y-45561200D03*
%TD*%
%TO.C,SW3*%
X90020000Y-45560000D03*
D19*
X95100000Y-45560000D03*
D18*
X100180000Y-45560000D03*
%TD*%
M02*
