M48
; DRILL file {KiCad (7.0.0)} date Thu Sep  5 20:10:41 2024
; FORMAT={-:-/ absolute / inch / decimal}
; #@! TF.CreationDate,2024-09-05T20:10:41+09:00
; #@! TF.GenerationSoftware,Kicad,Pcbnew,(7.0.0)
; #@! TF.FileFunction,NonPlated,1,2,NPTH
FMAT,2
INCH
; #@! TA.AperFunction,NonPlated,NPTH,ComponentDrill
T1C0.0669
; #@! TA.AperFunction,NonPlated,NPTH,ComponentDrill
T2C0.0748
; #@! TA.AperFunction,NonPlated,NPTH,ComponentDrill
T3C0.0866
; #@! TA.AperFunction,NonPlated,NPTH,ComponentDrill
T4C0.1201
; #@! TA.AperFunction,NonPlated,NPTH,ComponentDrill
T5C0.1575
%
G90
G05
T1
X4.5756Y-2.1693
X4.9756Y-2.1693
T2
X2.0438Y-1.7937
X2.2313Y-2.5437
X2.4438Y-1.7937
X2.6313Y-2.5437
X2.7938Y-1.7937
X3.1938Y-1.7937
X3.45Y-2.5437
X3.5441Y-1.7937
X3.85Y-2.5437
X3.9441Y-1.7937
T3
X1.9301Y-2.8494
X3.372Y-1.4518
X5.1969Y-1.4459
X5.1969Y-2.8661
T4
X4.5Y-1.7008
X4.5Y-2.6378
T5
X2.2438Y-1.7937
X2.4313Y-2.5437
X2.9938Y-1.7937
X3.65Y-2.5437
X3.7441Y-1.7937
X4.7756Y-2.1693
X5.1Y-1.7008
X5.1Y-2.6378
T0
M30
