M48
; DRILL file {KiCad (7.0.0)} date Thu Sep  5 20:10:41 2024
; FORMAT={-:-/ absolute / inch / decimal}
; #@! TF.CreationDate,2024-09-05T20:10:41+09:00
; #@! TF.GenerationSoftware,Kicad,Pcbnew,(7.0.0)
; #@! TF.FileFunction,Plated,1,2,PTH
FMAT,2
INCH
; #@! TA.AperFunction,Plated,PTH,ViaDrill
T1C0.0157
; #@! TA.AperFunction,Plated,PTH,ComponentDrill
T2C0.0315
; #@! TA.AperFunction,Plated,PTH,ComponentDrill
T3C0.0320
; #@! TA.AperFunction,Plated,PTH,ComponentDrill
T4C0.0512
; #@! TA.AperFunction,Plated,PTH,ComponentDrill
T5C0.0591
%
G90
G05
T1
X3.9804Y-1.6587
T3
X2.0307Y-1.4803
X2.0307Y-2.0795
X2.1307Y-1.4803
X2.1307Y-2.0795
X2.2307Y-1.4803
X2.2307Y-2.0795
X2.3307Y-1.4803
X2.3307Y-2.0795
X2.4307Y-1.4803
X2.4307Y-2.0795
X2.5307Y-1.4803
X2.5307Y-2.0795
X2.6307Y-1.4803
X2.6307Y-2.0795
X2.7307Y-1.4803
X2.7307Y-2.0795
X2.8307Y-1.4803
X2.8307Y-2.0795
X2.8583Y-2.622
X2.8589Y-2.4094
X2.9307Y-1.4803
X2.9307Y-2.0795
X3.0307Y-1.4803
X3.0307Y-2.0795
X3.1307Y-1.4803
X3.1307Y-2.0795
X3.1583Y-2.622
X3.1589Y-2.4094
X3.378Y-1.6285
X3.378Y-1.9285
X3.5596Y-2.0709
X3.8596Y-2.0709
X4.04Y-2.0709
X4.34Y-2.0709
X4.6551Y-2.8125
X4.9551Y-2.8125
T4
X4.2188Y-1.5937
X4.2188Y-1.8497
T5
X4.6256Y-2.0693
X4.8756Y-1.9693
T2
G00X2.0859Y-1.6937
M15
G01X2.1016Y-1.6937
M16
G05
G00X2.2734Y-2.4437
M15
G01X2.2891Y-2.4437
M16
G05
G00X2.3359Y-1.5937
M15
G01X2.3516Y-1.5937
M16
G05
G00X2.5234Y-2.3437
M15
G01X2.5391Y-2.3437
M16
G05
G00X2.8359Y-1.6937
M15
G01X2.8516Y-1.6937
M16
G05
G00X3.0859Y-1.5937
M15
G01X3.1016Y-1.5937
M16
G05
G00X3.4921Y-2.4437
M15
G01X3.5079Y-2.4437
M16
G05
G00X3.5862Y-1.6937
M15
G01X3.602Y-1.6937
M16
G05
G00X3.7421Y-2.3437
M15
G01X3.7579Y-2.3437
M16
G05
G00X3.8362Y-1.5937
M15
G01X3.852Y-1.5937
M16
G05
T0
M30
