G04 #@! TF.GenerationSoftware,KiCad,Pcbnew,(7.0.0)*
G04 #@! TF.CreationDate,2023-09-07T17:01:30+09:00*
G04 #@! TF.ProjectId,iso6,69736f36-2e6b-4696-9361-645f70636258,rev?*
G04 #@! TF.SameCoordinates,Original*
G04 #@! TF.FileFunction,Copper,L2,Bot*
G04 #@! TF.FilePolarity,Positive*
%FSLAX46Y46*%
G04 Gerber Fmt 4.6, Leading zero omitted, Abs format (unit mm)*
G04 Created by KiCad (PCBNEW (7.0.0)) date 2023-09-07 17:01:30*
%MOMM*%
%LPD*%
G01*
G04 APERTURE LIST*
G04 #@! TA.AperFunction,ComponentPad*
%ADD10R,1.397000X1.397000*%
G04 #@! TD*
G04 #@! TA.AperFunction,SMDPad,CuDef*
%ADD11R,1.300000X0.950000*%
G04 #@! TD*
G04 #@! TA.AperFunction,ComponentPad*
%ADD12C,1.397000*%
G04 #@! TD*
G04 #@! TA.AperFunction,ComponentPad*
%ADD13C,2.000000*%
G04 #@! TD*
G04 #@! TA.AperFunction,ComponentPad*
%ADD14C,1.524000*%
G04 #@! TD*
G04 #@! TA.AperFunction,ComponentPad*
%ADD15O,2.500000X2.000000*%
G04 #@! TD*
G04 #@! TA.AperFunction,ComponentPad*
%ADD16C,2.200000*%
G04 #@! TD*
G04 #@! TA.AperFunction,SMDPad,CuDef*
%ADD17R,0.950000X1.300000*%
G04 #@! TD*
G04 #@! TA.AperFunction,ViaPad*
%ADD18C,0.800000*%
G04 #@! TD*
G04 #@! TA.AperFunction,Conductor*
%ADD19C,0.250000*%
G04 #@! TD*
G04 APERTURE END LIST*
D10*
X102614999Y-52599999D03*
D11*
X104649999Y-52599999D03*
X108199999Y-52599999D03*
D12*
X110235000Y-52600000D03*
D13*
X107156300Y-40481200D03*
X107156300Y-46981200D03*
D14*
X51580000Y-37600000D03*
X54120000Y-37600000D03*
X56660000Y-37600000D03*
X59200000Y-37600000D03*
X61740000Y-37600000D03*
X64280000Y-37600000D03*
X66820000Y-37600000D03*
X69360000Y-37600000D03*
X71900000Y-37600000D03*
X74440000Y-37600000D03*
X76980000Y-37600000D03*
X79520000Y-37600000D03*
X79520000Y-52820000D03*
X76980000Y-52820000D03*
X74440000Y-52820000D03*
X71900000Y-52820000D03*
X69360000Y-52820000D03*
X66820000Y-52820000D03*
X64280000Y-52820000D03*
X61740000Y-52820000D03*
X59200000Y-52820000D03*
X56660000Y-52820000D03*
X54120000Y-52820000D03*
X51580000Y-52820000D03*
D10*
X90414999Y-52599999D03*
D11*
X92449999Y-52599999D03*
X95999999Y-52599999D03*
D12*
X98035000Y-52600000D03*
D15*
X72231299Y-43021199D03*
X78581299Y-40481199D03*
X88899999Y-62071199D03*
X95249999Y-59531199D03*
X57943799Y-62071199D03*
X64293799Y-59531199D03*
D10*
X72614999Y-61199999D03*
D11*
X74649999Y-61199999D03*
X78199999Y-61199999D03*
D12*
X80235000Y-61200000D03*
D16*
X123840000Y-50020000D03*
X117490000Y-52560000D03*
D10*
X118239999Y-71437499D03*
D11*
X120274999Y-71437499D03*
X123824999Y-71437499D03*
D12*
X125860000Y-71437500D03*
D10*
X72599999Y-66599999D03*
D11*
X74634999Y-66599999D03*
X78184999Y-66599999D03*
D12*
X80220000Y-66600000D03*
D10*
X85799999Y-48984999D03*
D17*
X85799999Y-46949999D03*
X85799999Y-43399999D03*
D12*
X85800000Y-41365000D03*
D15*
X53181299Y-43021199D03*
X59531299Y-40481199D03*
X91289999Y-43019999D03*
X97639999Y-40479999D03*
D18*
X101103100Y-42131500D03*
D19*
X70050000Y-61200000D02*
X72615000Y-61200000D01*
X69360000Y-43240000D02*
X63050000Y-49550000D01*
X69360000Y-37600000D02*
X69360000Y-43240000D01*
X63050000Y-49550000D02*
X63050000Y-54200000D01*
X63050000Y-54200000D02*
X70050000Y-61200000D01*
X90930400Y-71437500D02*
X118240000Y-71437500D01*
X83692900Y-64200000D02*
X90930400Y-71437500D01*
X74635000Y-65515000D02*
X75950000Y-64200000D01*
X75950000Y-64200000D02*
X83692900Y-64200000D01*
X74635000Y-65548300D02*
X74635000Y-65515000D01*
X85800000Y-41365000D02*
X85800000Y-43400000D01*
X93499900Y-54450000D02*
X99741400Y-54450000D01*
X99741400Y-54450000D02*
X101591400Y-52600000D01*
X66820000Y-37600000D02*
X68370000Y-36050000D01*
X68370000Y-36050000D02*
X70125000Y-36050000D01*
X90415000Y-52600000D02*
X92450000Y-52600000D01*
X80842800Y-42792900D02*
X84999900Y-46950000D01*
X85800000Y-47350000D02*
X85800000Y-48985000D01*
X92450000Y-53400100D02*
X93499900Y-54450000D01*
X104650000Y-52600000D02*
X102615000Y-52600000D01*
X101591400Y-52600000D02*
X102615000Y-52600000D01*
X85400000Y-46950000D02*
X85800000Y-47350000D01*
X70630000Y-36555000D02*
X70630000Y-38655000D01*
X70125000Y-36050000D02*
X70630000Y-36555000D01*
X70630000Y-38655000D02*
X74767900Y-42792900D01*
X74767900Y-42792900D02*
X80842800Y-42792900D01*
X84999900Y-46950000D02*
X85400000Y-46950000D01*
X92450000Y-52600000D02*
X92450000Y-53400100D01*
X85800000Y-46950000D02*
X85400000Y-46950000D01*
X96000000Y-52600000D02*
X92275000Y-48875000D01*
X89850000Y-48875000D02*
X86425000Y-45450000D01*
X80456200Y-40481200D02*
X78581300Y-40481200D01*
X98035000Y-52600000D02*
X96000000Y-52600000D01*
X85425000Y-45450000D02*
X80456200Y-40481200D01*
X86425000Y-45450000D02*
X85425000Y-45450000D01*
X92275000Y-48875000D02*
X89850000Y-48875000D01*
X98375000Y-47125001D02*
X102099999Y-50850000D01*
X106450000Y-50850000D02*
X108200000Y-52600000D01*
X97640000Y-40480000D02*
X97640000Y-42390000D01*
X98375000Y-43125000D02*
X98375000Y-47125001D01*
X110235000Y-52600000D02*
X108200000Y-52600000D01*
X97640000Y-42390000D02*
X98375000Y-43125000D01*
X102099999Y-50850000D02*
X106450000Y-50850000D01*
X80235000Y-61200000D02*
X78200000Y-61200000D01*
X120275000Y-71437500D02*
X118240000Y-71437500D01*
X74650000Y-61200000D02*
X74650000Y-61600000D01*
X74650000Y-61600000D02*
X74635000Y-61600000D01*
X74038600Y-61600000D02*
X73638600Y-61200000D01*
X74635000Y-65548300D02*
X74635000Y-65799900D01*
X72600000Y-66600000D02*
X73623600Y-66600000D01*
X74635000Y-66199900D02*
X74023700Y-66199900D01*
X74635000Y-66199900D02*
X74635000Y-65799900D01*
X74635000Y-61600000D02*
X74635000Y-65548300D01*
X74023700Y-66199900D02*
X73623600Y-66600000D01*
X74635000Y-61600000D02*
X74038600Y-61600000D01*
X72615000Y-61200000D02*
X73638600Y-61200000D01*
X74635000Y-66600000D02*
X74635000Y-66199900D01*
X80220000Y-66600000D02*
X79160100Y-66600000D01*
X78185000Y-66600000D02*
X79160100Y-66600000D01*
X117490000Y-52560000D02*
X118225000Y-53295000D01*
X118225000Y-53295000D02*
X118225000Y-65037400D01*
X118225000Y-65037400D02*
X123825000Y-70637400D01*
X123825000Y-70637400D02*
X123825000Y-71437500D01*
X125860000Y-71437500D02*
X123825000Y-71437500D01*
X60650000Y-53910000D02*
X61740000Y-52820000D01*
X57943800Y-60746100D02*
X60650000Y-58039900D01*
X59145000Y-50225000D02*
X55750000Y-50225000D01*
X57943800Y-62071200D02*
X57943800Y-60746100D01*
X60650000Y-58039900D02*
X60650000Y-53910000D01*
X53900000Y-43739900D02*
X53181300Y-43021200D01*
X53900000Y-48375000D02*
X53900000Y-43739900D01*
X55750000Y-50225000D02*
X53900000Y-48375000D01*
X61740000Y-52820000D02*
X59145000Y-50225000D01*
X88900000Y-62071200D02*
X88900000Y-59075000D01*
X72231300Y-44346300D02*
X72231300Y-43021200D01*
X73350000Y-49875000D02*
X72328100Y-48853100D01*
X72328100Y-48853100D02*
X72328100Y-47252900D01*
X76775000Y-49875000D02*
X73350000Y-49875000D01*
X71356000Y-48225000D02*
X68875000Y-48225000D01*
X88900000Y-59075000D02*
X81175000Y-51350000D01*
X73000000Y-45115000D02*
X72231300Y-44346300D01*
X81175000Y-51350000D02*
X78250000Y-51350000D01*
X68875000Y-48225000D02*
X64280000Y-52820000D01*
X72328100Y-47252900D02*
X73000000Y-46581000D01*
X72328100Y-47252900D02*
X71356000Y-48225000D01*
X73000000Y-46581000D02*
X73000000Y-45115000D01*
X78250000Y-51350000D02*
X76775000Y-49875000D01*
X101103100Y-42131500D02*
X105506000Y-42131500D01*
X105506000Y-42131500D02*
X107156300Y-40481200D01*
M02*
