G04 #@! TF.GenerationSoftware,KiCad,Pcbnew,(7.0.0)*
G04 #@! TF.CreationDate,2023-09-07T17:01:30+09:00*
G04 #@! TF.ProjectId,iso6,69736f36-2e6b-4696-9361-645f70636258,rev?*
G04 #@! TF.SameCoordinates,Original*
G04 #@! TF.FileFunction,Legend,Bot*
G04 #@! TF.FilePolarity,Positive*
%FSLAX46Y46*%
G04 Gerber Fmt 4.6, Leading zero omitted, Abs format (unit mm)*
G04 Created by KiCad (PCBNEW (7.0.0)) date 2023-09-07 17:01:30*
%MOMM*%
%LPD*%
G01*
G04 APERTURE LIST*
%ADD10C,0.200000*%
%ADD11C,0.125000*%
%ADD12C,0.150000*%
G04 APERTURE END LIST*
D10*
X77242857Y-72073571D02*
X77242857Y-71073571D01*
X77242857Y-70573571D02*
X77314285Y-70645000D01*
X77314285Y-70645000D02*
X77242857Y-70716428D01*
X77242857Y-70716428D02*
X77171428Y-70645000D01*
X77171428Y-70645000D02*
X77242857Y-70573571D01*
X77242857Y-70573571D02*
X77242857Y-70716428D01*
X76599999Y-72002142D02*
X76457142Y-72073571D01*
X76457142Y-72073571D02*
X76171428Y-72073571D01*
X76171428Y-72073571D02*
X76028571Y-72002142D01*
X76028571Y-72002142D02*
X75957142Y-71859285D01*
X75957142Y-71859285D02*
X75957142Y-71787857D01*
X75957142Y-71787857D02*
X76028571Y-71645000D01*
X76028571Y-71645000D02*
X76171428Y-71573571D01*
X76171428Y-71573571D02*
X76385714Y-71573571D01*
X76385714Y-71573571D02*
X76528571Y-71502142D01*
X76528571Y-71502142D02*
X76599999Y-71359285D01*
X76599999Y-71359285D02*
X76599999Y-71287857D01*
X76599999Y-71287857D02*
X76528571Y-71145000D01*
X76528571Y-71145000D02*
X76385714Y-71073571D01*
X76385714Y-71073571D02*
X76171428Y-71073571D01*
X76171428Y-71073571D02*
X76028571Y-71145000D01*
X75099999Y-72073571D02*
X75242856Y-72002142D01*
X75242856Y-72002142D02*
X75314285Y-71930714D01*
X75314285Y-71930714D02*
X75385713Y-71787857D01*
X75385713Y-71787857D02*
X75385713Y-71359285D01*
X75385713Y-71359285D02*
X75314285Y-71216428D01*
X75314285Y-71216428D02*
X75242856Y-71145000D01*
X75242856Y-71145000D02*
X75099999Y-71073571D01*
X75099999Y-71073571D02*
X74885713Y-71073571D01*
X74885713Y-71073571D02*
X74742856Y-71145000D01*
X74742856Y-71145000D02*
X74671428Y-71216428D01*
X74671428Y-71216428D02*
X74599999Y-71359285D01*
X74599999Y-71359285D02*
X74599999Y-71787857D01*
X74599999Y-71787857D02*
X74671428Y-71930714D01*
X74671428Y-71930714D02*
X74742856Y-72002142D01*
X74742856Y-72002142D02*
X74885713Y-72073571D01*
X74885713Y-72073571D02*
X75099999Y-72073571D01*
X73314285Y-71073571D02*
X73314285Y-72287857D01*
X73314285Y-72287857D02*
X73385713Y-72430714D01*
X73385713Y-72430714D02*
X73457142Y-72502142D01*
X73457142Y-72502142D02*
X73599999Y-72573571D01*
X73599999Y-72573571D02*
X73814285Y-72573571D01*
X73814285Y-72573571D02*
X73957142Y-72502142D01*
X73314285Y-72002142D02*
X73457142Y-72073571D01*
X73457142Y-72073571D02*
X73742856Y-72073571D01*
X73742856Y-72073571D02*
X73885713Y-72002142D01*
X73885713Y-72002142D02*
X73957142Y-71930714D01*
X73957142Y-71930714D02*
X74028570Y-71787857D01*
X74028570Y-71787857D02*
X74028570Y-71359285D01*
X74028570Y-71359285D02*
X73957142Y-71216428D01*
X73957142Y-71216428D02*
X73885713Y-71145000D01*
X73885713Y-71145000D02*
X73742856Y-71073571D01*
X73742856Y-71073571D02*
X73457142Y-71073571D01*
X73457142Y-71073571D02*
X73314285Y-71145000D01*
X72599999Y-72073571D02*
X72599999Y-71073571D01*
X72599999Y-70573571D02*
X72671427Y-70645000D01*
X72671427Y-70645000D02*
X72599999Y-70716428D01*
X72599999Y-70716428D02*
X72528570Y-70645000D01*
X72528570Y-70645000D02*
X72599999Y-70573571D01*
X72599999Y-70573571D02*
X72599999Y-70716428D01*
X71885713Y-71073571D02*
X71885713Y-72073571D01*
X71885713Y-71216428D02*
X71814284Y-71145000D01*
X71814284Y-71145000D02*
X71671427Y-71073571D01*
X71671427Y-71073571D02*
X71457141Y-71073571D01*
X71457141Y-71073571D02*
X71314284Y-71145000D01*
X71314284Y-71145000D02*
X71242856Y-71287857D01*
X71242856Y-71287857D02*
X71242856Y-72073571D01*
X69885713Y-72002142D02*
X70028570Y-72073571D01*
X70028570Y-72073571D02*
X70314284Y-72073571D01*
X70314284Y-72073571D02*
X70457141Y-72002142D01*
X70457141Y-72002142D02*
X70528570Y-71930714D01*
X70528570Y-71930714D02*
X70599998Y-71787857D01*
X70599998Y-71787857D02*
X70599998Y-71359285D01*
X70599998Y-71359285D02*
X70528570Y-71216428D01*
X70528570Y-71216428D02*
X70457141Y-71145000D01*
X70457141Y-71145000D02*
X70314284Y-71073571D01*
X70314284Y-71073571D02*
X70028570Y-71073571D01*
X70028570Y-71073571D02*
X69885713Y-71145000D01*
X69242856Y-72073571D02*
X69242856Y-70573571D01*
X68599999Y-72073571D02*
X68599999Y-71287857D01*
X68599999Y-71287857D02*
X68671427Y-71145000D01*
X68671427Y-71145000D02*
X68814284Y-71073571D01*
X68814284Y-71073571D02*
X69028570Y-71073571D01*
X69028570Y-71073571D02*
X69171427Y-71145000D01*
X69171427Y-71145000D02*
X69242856Y-71216428D01*
X67242856Y-72073571D02*
X67242856Y-71287857D01*
X67242856Y-71287857D02*
X67314284Y-71145000D01*
X67314284Y-71145000D02*
X67457141Y-71073571D01*
X67457141Y-71073571D02*
X67742856Y-71073571D01*
X67742856Y-71073571D02*
X67885713Y-71145000D01*
X67242856Y-72002142D02*
X67385713Y-72073571D01*
X67385713Y-72073571D02*
X67742856Y-72073571D01*
X67742856Y-72073571D02*
X67885713Y-72002142D01*
X67885713Y-72002142D02*
X67957141Y-71859285D01*
X67957141Y-71859285D02*
X67957141Y-71716428D01*
X67957141Y-71716428D02*
X67885713Y-71573571D01*
X67885713Y-71573571D02*
X67742856Y-71502142D01*
X67742856Y-71502142D02*
X67385713Y-71502142D01*
X67385713Y-71502142D02*
X67242856Y-71430714D01*
X66528570Y-72073571D02*
X66528570Y-70573571D01*
X66385713Y-71502142D02*
X65957141Y-72073571D01*
X65957141Y-71073571D02*
X66528570Y-71645000D01*
X64671427Y-70573571D02*
X64957141Y-70573571D01*
X64957141Y-70573571D02*
X65099998Y-70645000D01*
X65099998Y-70645000D02*
X65171427Y-70716428D01*
X65171427Y-70716428D02*
X65314284Y-70930714D01*
X65314284Y-70930714D02*
X65385712Y-71216428D01*
X65385712Y-71216428D02*
X65385712Y-71787857D01*
X65385712Y-71787857D02*
X65314284Y-71930714D01*
X65314284Y-71930714D02*
X65242855Y-72002142D01*
X65242855Y-72002142D02*
X65099998Y-72073571D01*
X65099998Y-72073571D02*
X64814284Y-72073571D01*
X64814284Y-72073571D02*
X64671427Y-72002142D01*
X64671427Y-72002142D02*
X64599998Y-71930714D01*
X64599998Y-71930714D02*
X64528569Y-71787857D01*
X64528569Y-71787857D02*
X64528569Y-71430714D01*
X64528569Y-71430714D02*
X64599998Y-71287857D01*
X64599998Y-71287857D02*
X64671427Y-71216428D01*
X64671427Y-71216428D02*
X64814284Y-71145000D01*
X64814284Y-71145000D02*
X65099998Y-71145000D01*
X65099998Y-71145000D02*
X65242855Y-71216428D01*
X65242855Y-71216428D02*
X65314284Y-71287857D01*
X65314284Y-71287857D02*
X65385712Y-71430714D01*
X63128570Y-71073571D02*
X62771427Y-72073571D01*
X62771427Y-72073571D02*
X62414284Y-71073571D01*
X61271427Y-72002142D02*
X61414284Y-72073571D01*
X61414284Y-72073571D02*
X61699999Y-72073571D01*
X61699999Y-72073571D02*
X61842856Y-72002142D01*
X61842856Y-72002142D02*
X61914284Y-71859285D01*
X61914284Y-71859285D02*
X61914284Y-71287857D01*
X61914284Y-71287857D02*
X61842856Y-71145000D01*
X61842856Y-71145000D02*
X61699999Y-71073571D01*
X61699999Y-71073571D02*
X61414284Y-71073571D01*
X61414284Y-71073571D02*
X61271427Y-71145000D01*
X61271427Y-71145000D02*
X61199999Y-71287857D01*
X61199999Y-71287857D02*
X61199999Y-71430714D01*
X61199999Y-71430714D02*
X61914284Y-71573571D01*
X60557142Y-72073571D02*
X60557142Y-71073571D01*
X60557142Y-71359285D02*
X60485713Y-71216428D01*
X60485713Y-71216428D02*
X60414285Y-71145000D01*
X60414285Y-71145000D02*
X60271427Y-71073571D01*
X60271427Y-71073571D02*
X60128570Y-71073571D01*
X58842856Y-72073571D02*
X59699999Y-72073571D01*
X59271428Y-72073571D02*
X59271428Y-70573571D01*
X59271428Y-70573571D02*
X59414285Y-70787857D01*
X59414285Y-70787857D02*
X59557142Y-70930714D01*
X59557142Y-70930714D02*
X59699999Y-71002142D01*
X58200000Y-71930714D02*
X58128571Y-72002142D01*
X58128571Y-72002142D02*
X58200000Y-72073571D01*
X58200000Y-72073571D02*
X58271428Y-72002142D01*
X58271428Y-72002142D02*
X58200000Y-71930714D01*
X58200000Y-71930714D02*
X58200000Y-72073571D01*
X57199999Y-70573571D02*
X57057142Y-70573571D01*
X57057142Y-70573571D02*
X56914285Y-70645000D01*
X56914285Y-70645000D02*
X56842857Y-70716428D01*
X56842857Y-70716428D02*
X56771428Y-70859285D01*
X56771428Y-70859285D02*
X56699999Y-71145000D01*
X56699999Y-71145000D02*
X56699999Y-71502142D01*
X56699999Y-71502142D02*
X56771428Y-71787857D01*
X56771428Y-71787857D02*
X56842857Y-71930714D01*
X56842857Y-71930714D02*
X56914285Y-72002142D01*
X56914285Y-72002142D02*
X57057142Y-72073571D01*
X57057142Y-72073571D02*
X57199999Y-72073571D01*
X57199999Y-72073571D02*
X57342857Y-72002142D01*
X57342857Y-72002142D02*
X57414285Y-71930714D01*
X57414285Y-71930714D02*
X57485714Y-71787857D01*
X57485714Y-71787857D02*
X57557142Y-71502142D01*
X57557142Y-71502142D02*
X57557142Y-71145000D01*
X57557142Y-71145000D02*
X57485714Y-70859285D01*
X57485714Y-70859285D02*
X57414285Y-70716428D01*
X57414285Y-70716428D02*
X57342857Y-70645000D01*
X57342857Y-70645000D02*
X57199999Y-70573571D01*
X98714285Y-71359285D02*
X98785714Y-71287857D01*
X98785714Y-71287857D02*
X98928571Y-71216428D01*
X98928571Y-71216428D02*
X99071428Y-71216428D01*
X99071428Y-71216428D02*
X99214285Y-71287857D01*
X99214285Y-71287857D02*
X99285714Y-71359285D01*
X99285714Y-71359285D02*
X99357142Y-71502142D01*
X99357142Y-71502142D02*
X99357142Y-71645000D01*
X99357142Y-71645000D02*
X99285714Y-71787857D01*
X99285714Y-71787857D02*
X99214285Y-71859285D01*
X99214285Y-71859285D02*
X99071428Y-71930714D01*
X99071428Y-71930714D02*
X98928571Y-71930714D01*
X98928571Y-71930714D02*
X98785714Y-71859285D01*
X98785714Y-71859285D02*
X98714285Y-71787857D01*
X98714285Y-71216428D02*
X98714285Y-71787857D01*
X98714285Y-71787857D02*
X98642857Y-71859285D01*
X98642857Y-71859285D02*
X98571428Y-71859285D01*
X98571428Y-71859285D02*
X98428571Y-71787857D01*
X98428571Y-71787857D02*
X98357142Y-71645000D01*
X98357142Y-71645000D02*
X98357142Y-71287857D01*
X98357142Y-71287857D02*
X98500000Y-71073571D01*
X98500000Y-71073571D02*
X98714285Y-70930714D01*
X98714285Y-70930714D02*
X99000000Y-70859285D01*
X99000000Y-70859285D02*
X99285714Y-70930714D01*
X99285714Y-70930714D02*
X99500000Y-71073571D01*
X99500000Y-71073571D02*
X99642857Y-71287857D01*
X99642857Y-71287857D02*
X99714285Y-71573571D01*
X99714285Y-71573571D02*
X99642857Y-71859285D01*
X99642857Y-71859285D02*
X99500000Y-72073571D01*
X99500000Y-72073571D02*
X99285714Y-72216428D01*
X99285714Y-72216428D02*
X99000000Y-72287857D01*
X99000000Y-72287857D02*
X98714285Y-72216428D01*
X98714285Y-72216428D02*
X98500000Y-72073571D01*
X97785714Y-72002142D02*
X97642857Y-72073571D01*
X97642857Y-72073571D02*
X97357143Y-72073571D01*
X97357143Y-72073571D02*
X97214286Y-72002142D01*
X97214286Y-72002142D02*
X97142857Y-71859285D01*
X97142857Y-71859285D02*
X97142857Y-71787857D01*
X97142857Y-71787857D02*
X97214286Y-71645000D01*
X97214286Y-71645000D02*
X97357143Y-71573571D01*
X97357143Y-71573571D02*
X97571429Y-71573571D01*
X97571429Y-71573571D02*
X97714286Y-71502142D01*
X97714286Y-71502142D02*
X97785714Y-71359285D01*
X97785714Y-71359285D02*
X97785714Y-71287857D01*
X97785714Y-71287857D02*
X97714286Y-71145000D01*
X97714286Y-71145000D02*
X97571429Y-71073571D01*
X97571429Y-71073571D02*
X97357143Y-71073571D01*
X97357143Y-71073571D02*
X97214286Y-71145000D01*
X95857143Y-72073571D02*
X95857143Y-71287857D01*
X95857143Y-71287857D02*
X95928571Y-71145000D01*
X95928571Y-71145000D02*
X96071428Y-71073571D01*
X96071428Y-71073571D02*
X96357143Y-71073571D01*
X96357143Y-71073571D02*
X96500000Y-71145000D01*
X95857143Y-72002142D02*
X96000000Y-72073571D01*
X96000000Y-72073571D02*
X96357143Y-72073571D01*
X96357143Y-72073571D02*
X96500000Y-72002142D01*
X96500000Y-72002142D02*
X96571428Y-71859285D01*
X96571428Y-71859285D02*
X96571428Y-71716428D01*
X96571428Y-71716428D02*
X96500000Y-71573571D01*
X96500000Y-71573571D02*
X96357143Y-71502142D01*
X96357143Y-71502142D02*
X96000000Y-71502142D01*
X96000000Y-71502142D02*
X95857143Y-71430714D01*
X95142857Y-72073571D02*
X95142857Y-71073571D01*
X95142857Y-71216428D02*
X95071428Y-71145000D01*
X95071428Y-71145000D02*
X94928571Y-71073571D01*
X94928571Y-71073571D02*
X94714285Y-71073571D01*
X94714285Y-71073571D02*
X94571428Y-71145000D01*
X94571428Y-71145000D02*
X94500000Y-71287857D01*
X94500000Y-71287857D02*
X94500000Y-72073571D01*
X94500000Y-71287857D02*
X94428571Y-71145000D01*
X94428571Y-71145000D02*
X94285714Y-71073571D01*
X94285714Y-71073571D02*
X94071428Y-71073571D01*
X94071428Y-71073571D02*
X93928571Y-71145000D01*
X93928571Y-71145000D02*
X93857142Y-71287857D01*
X93857142Y-71287857D02*
X93857142Y-72073571D01*
X92357142Y-72073571D02*
X93214285Y-72073571D01*
X92785714Y-72073571D02*
X92785714Y-70573571D01*
X92785714Y-70573571D02*
X92928571Y-70787857D01*
X92928571Y-70787857D02*
X93071428Y-70930714D01*
X93071428Y-70930714D02*
X93214285Y-71002142D01*
X91071429Y-72073571D02*
X91071429Y-70573571D01*
X91071429Y-72002142D02*
X91214286Y-72073571D01*
X91214286Y-72073571D02*
X91500000Y-72073571D01*
X91500000Y-72073571D02*
X91642857Y-72002142D01*
X91642857Y-72002142D02*
X91714286Y-71930714D01*
X91714286Y-71930714D02*
X91785714Y-71787857D01*
X91785714Y-71787857D02*
X91785714Y-71359285D01*
X91785714Y-71359285D02*
X91714286Y-71216428D01*
X91714286Y-71216428D02*
X91642857Y-71145000D01*
X91642857Y-71145000D02*
X91500000Y-71073571D01*
X91500000Y-71073571D02*
X91214286Y-71073571D01*
X91214286Y-71073571D02*
X91071429Y-71145000D01*
X89714286Y-72073571D02*
X89714286Y-71287857D01*
X89714286Y-71287857D02*
X89785714Y-71145000D01*
X89785714Y-71145000D02*
X89928571Y-71073571D01*
X89928571Y-71073571D02*
X90214286Y-71073571D01*
X90214286Y-71073571D02*
X90357143Y-71145000D01*
X89714286Y-72002142D02*
X89857143Y-72073571D01*
X89857143Y-72073571D02*
X90214286Y-72073571D01*
X90214286Y-72073571D02*
X90357143Y-72002142D01*
X90357143Y-72002142D02*
X90428571Y-71859285D01*
X90428571Y-71859285D02*
X90428571Y-71716428D01*
X90428571Y-71716428D02*
X90357143Y-71573571D01*
X90357143Y-71573571D02*
X90214286Y-71502142D01*
X90214286Y-71502142D02*
X89857143Y-71502142D01*
X89857143Y-71502142D02*
X89714286Y-71430714D01*
X89000000Y-72073571D02*
X89000000Y-71073571D01*
X89000000Y-71359285D02*
X88928571Y-71216428D01*
X88928571Y-71216428D02*
X88857143Y-71145000D01*
X88857143Y-71145000D02*
X88714285Y-71073571D01*
X88714285Y-71073571D02*
X88571428Y-71073571D01*
X87500000Y-72002142D02*
X87642857Y-72073571D01*
X87642857Y-72073571D02*
X87928572Y-72073571D01*
X87928572Y-72073571D02*
X88071429Y-72002142D01*
X88071429Y-72002142D02*
X88142857Y-71859285D01*
X88142857Y-71859285D02*
X88142857Y-71287857D01*
X88142857Y-71287857D02*
X88071429Y-71145000D01*
X88071429Y-71145000D02*
X87928572Y-71073571D01*
X87928572Y-71073571D02*
X87642857Y-71073571D01*
X87642857Y-71073571D02*
X87500000Y-71145000D01*
X87500000Y-71145000D02*
X87428572Y-71287857D01*
X87428572Y-71287857D02*
X87428572Y-71430714D01*
X87428572Y-71430714D02*
X88142857Y-71573571D01*
X86857143Y-72002142D02*
X86714286Y-72073571D01*
X86714286Y-72073571D02*
X86428572Y-72073571D01*
X86428572Y-72073571D02*
X86285715Y-72002142D01*
X86285715Y-72002142D02*
X86214286Y-71859285D01*
X86214286Y-71859285D02*
X86214286Y-71787857D01*
X86214286Y-71787857D02*
X86285715Y-71645000D01*
X86285715Y-71645000D02*
X86428572Y-71573571D01*
X86428572Y-71573571D02*
X86642858Y-71573571D01*
X86642858Y-71573571D02*
X86785715Y-71502142D01*
X86785715Y-71502142D02*
X86857143Y-71359285D01*
X86857143Y-71359285D02*
X86857143Y-71287857D01*
X86857143Y-71287857D02*
X86785715Y-71145000D01*
X86785715Y-71145000D02*
X86642858Y-71073571D01*
X86642858Y-71073571D02*
X86428572Y-71073571D01*
X86428572Y-71073571D02*
X86285715Y-71145000D01*
X85571429Y-72073571D02*
X85571429Y-70573571D01*
X84928572Y-72073571D02*
X84928572Y-71287857D01*
X84928572Y-71287857D02*
X85000000Y-71145000D01*
X85000000Y-71145000D02*
X85142857Y-71073571D01*
X85142857Y-71073571D02*
X85357143Y-71073571D01*
X85357143Y-71073571D02*
X85500000Y-71145000D01*
X85500000Y-71145000D02*
X85571429Y-71216428D01*
X84214286Y-72073571D02*
X84214286Y-71073571D01*
X84214286Y-70573571D02*
X84285714Y-70645000D01*
X84285714Y-70645000D02*
X84214286Y-70716428D01*
X84214286Y-70716428D02*
X84142857Y-70645000D01*
X84142857Y-70645000D02*
X84214286Y-70573571D01*
X84214286Y-70573571D02*
X84214286Y-70716428D01*
X83500000Y-72073571D02*
X83500000Y-70573571D01*
X83357143Y-71502142D02*
X82928571Y-72073571D01*
X82928571Y-71073571D02*
X83500000Y-71645000D01*
X82285714Y-72073571D02*
X82285714Y-71073571D01*
X82285714Y-70573571D02*
X82357142Y-70645000D01*
X82357142Y-70645000D02*
X82285714Y-70716428D01*
X82285714Y-70716428D02*
X82214285Y-70645000D01*
X82214285Y-70645000D02*
X82285714Y-70573571D01*
X82285714Y-70573571D02*
X82285714Y-70716428D01*
D11*
X107163094Y-51337380D02*
X107163094Y-50337380D01*
X107163094Y-50337380D02*
X106924999Y-50337380D01*
X106924999Y-50337380D02*
X106782142Y-50385000D01*
X106782142Y-50385000D02*
X106686904Y-50480238D01*
X106686904Y-50480238D02*
X106639285Y-50575476D01*
X106639285Y-50575476D02*
X106591666Y-50765952D01*
X106591666Y-50765952D02*
X106591666Y-50908809D01*
X106591666Y-50908809D02*
X106639285Y-51099285D01*
X106639285Y-51099285D02*
X106686904Y-51194523D01*
X106686904Y-51194523D02*
X106782142Y-51289761D01*
X106782142Y-51289761D02*
X106924999Y-51337380D01*
X106924999Y-51337380D02*
X107163094Y-51337380D01*
X106258332Y-50337380D02*
X105639285Y-50337380D01*
X105639285Y-50337380D02*
X105972618Y-50718333D01*
X105972618Y-50718333D02*
X105829761Y-50718333D01*
X105829761Y-50718333D02*
X105734523Y-50765952D01*
X105734523Y-50765952D02*
X105686904Y-50813571D01*
X105686904Y-50813571D02*
X105639285Y-50908809D01*
X105639285Y-50908809D02*
X105639285Y-51146904D01*
X105639285Y-51146904D02*
X105686904Y-51242142D01*
X105686904Y-51242142D02*
X105734523Y-51289761D01*
X105734523Y-51289761D02*
X105829761Y-51337380D01*
X105829761Y-51337380D02*
X106115475Y-51337380D01*
X106115475Y-51337380D02*
X106210713Y-51289761D01*
X106210713Y-51289761D02*
X106258332Y-51242142D01*
D12*
X107523680Y-42151818D02*
X107047490Y-41818485D01*
X107523680Y-41580390D02*
X106523680Y-41580390D01*
X106523680Y-41580390D02*
X106523680Y-41961342D01*
X106523680Y-41961342D02*
X106571300Y-42056580D01*
X106571300Y-42056580D02*
X106618919Y-42104199D01*
X106618919Y-42104199D02*
X106714157Y-42151818D01*
X106714157Y-42151818D02*
X106857014Y-42151818D01*
X106857014Y-42151818D02*
X106952252Y-42104199D01*
X106952252Y-42104199D02*
X106999871Y-42056580D01*
X106999871Y-42056580D02*
X107047490Y-41961342D01*
X107047490Y-41961342D02*
X107047490Y-41580390D01*
X106999871Y-42580390D02*
X106999871Y-42913723D01*
X107523680Y-43056580D02*
X107523680Y-42580390D01*
X107523680Y-42580390D02*
X106523680Y-42580390D01*
X106523680Y-42580390D02*
X106523680Y-43056580D01*
X107476061Y-43437533D02*
X107523680Y-43580390D01*
X107523680Y-43580390D02*
X107523680Y-43818485D01*
X107523680Y-43818485D02*
X107476061Y-43913723D01*
X107476061Y-43913723D02*
X107428442Y-43961342D01*
X107428442Y-43961342D02*
X107333204Y-44008961D01*
X107333204Y-44008961D02*
X107237966Y-44008961D01*
X107237966Y-44008961D02*
X107142728Y-43961342D01*
X107142728Y-43961342D02*
X107095109Y-43913723D01*
X107095109Y-43913723D02*
X107047490Y-43818485D01*
X107047490Y-43818485D02*
X106999871Y-43628009D01*
X106999871Y-43628009D02*
X106952252Y-43532771D01*
X106952252Y-43532771D02*
X106904633Y-43485152D01*
X106904633Y-43485152D02*
X106809395Y-43437533D01*
X106809395Y-43437533D02*
X106714157Y-43437533D01*
X106714157Y-43437533D02*
X106618919Y-43485152D01*
X106618919Y-43485152D02*
X106571300Y-43532771D01*
X106571300Y-43532771D02*
X106523680Y-43628009D01*
X106523680Y-43628009D02*
X106523680Y-43866104D01*
X106523680Y-43866104D02*
X106571300Y-44008961D01*
X106999871Y-44437533D02*
X106999871Y-44770866D01*
X107523680Y-44913723D02*
X107523680Y-44437533D01*
X107523680Y-44437533D02*
X106523680Y-44437533D01*
X106523680Y-44437533D02*
X106523680Y-44913723D01*
X106523680Y-45199438D02*
X106523680Y-45770866D01*
X107523680Y-45485152D02*
X106523680Y-45485152D01*
D11*
X59132000Y-42619047D02*
X59093904Y-42571428D01*
X59093904Y-42571428D02*
X59093904Y-42499999D01*
X59093904Y-42499999D02*
X59132000Y-42428571D01*
X59132000Y-42428571D02*
X59208190Y-42380952D01*
X59208190Y-42380952D02*
X59284380Y-42357142D01*
X59284380Y-42357142D02*
X59436761Y-42333333D01*
X59436761Y-42333333D02*
X59551047Y-42333333D01*
X59551047Y-42333333D02*
X59703428Y-42357142D01*
X59703428Y-42357142D02*
X59779619Y-42380952D01*
X59779619Y-42380952D02*
X59855809Y-42428571D01*
X59855809Y-42428571D02*
X59893904Y-42499999D01*
X59893904Y-42499999D02*
X59893904Y-42547618D01*
X59893904Y-42547618D02*
X59855809Y-42619047D01*
X59855809Y-42619047D02*
X59817714Y-42642856D01*
X59817714Y-42642856D02*
X59551047Y-42642856D01*
X59551047Y-42642856D02*
X59551047Y-42547618D01*
X59893904Y-42857142D02*
X59093904Y-42857142D01*
X59093904Y-42857142D02*
X59893904Y-43142856D01*
X59893904Y-43142856D02*
X59093904Y-43142856D01*
X59893904Y-43380952D02*
X59093904Y-43380952D01*
X59093904Y-43380952D02*
X59093904Y-43500000D01*
X59093904Y-43500000D02*
X59132000Y-43571428D01*
X59132000Y-43571428D02*
X59208190Y-43619047D01*
X59208190Y-43619047D02*
X59284380Y-43642857D01*
X59284380Y-43642857D02*
X59436761Y-43666666D01*
X59436761Y-43666666D02*
X59551047Y-43666666D01*
X59551047Y-43666666D02*
X59703428Y-43642857D01*
X59703428Y-43642857D02*
X59779619Y-43619047D01*
X59779619Y-43619047D02*
X59855809Y-43571428D01*
X59855809Y-43571428D02*
X59893904Y-43500000D01*
X59893904Y-43500000D02*
X59893904Y-43380952D01*
X67037714Y-54608780D02*
X67075809Y-54584971D01*
X67075809Y-54584971D02*
X67113904Y-54513542D01*
X67113904Y-54513542D02*
X67113904Y-54465923D01*
X67113904Y-54465923D02*
X67075809Y-54394495D01*
X67075809Y-54394495D02*
X66999619Y-54346876D01*
X66999619Y-54346876D02*
X66923428Y-54323066D01*
X66923428Y-54323066D02*
X66771047Y-54299257D01*
X66771047Y-54299257D02*
X66656761Y-54299257D01*
X66656761Y-54299257D02*
X66504380Y-54323066D01*
X66504380Y-54323066D02*
X66428190Y-54346876D01*
X66428190Y-54346876D02*
X66352000Y-54394495D01*
X66352000Y-54394495D02*
X66313904Y-54465923D01*
X66313904Y-54465923D02*
X66313904Y-54513542D01*
X66313904Y-54513542D02*
X66352000Y-54584971D01*
X66352000Y-54584971D02*
X66390095Y-54608780D01*
X66313904Y-54918304D02*
X66313904Y-55013542D01*
X66313904Y-55013542D02*
X66352000Y-55061161D01*
X66352000Y-55061161D02*
X66428190Y-55108780D01*
X66428190Y-55108780D02*
X66580571Y-55132590D01*
X66580571Y-55132590D02*
X66847238Y-55132590D01*
X66847238Y-55132590D02*
X66999619Y-55108780D01*
X66999619Y-55108780D02*
X67075809Y-55061161D01*
X67075809Y-55061161D02*
X67113904Y-55013542D01*
X67113904Y-55013542D02*
X67113904Y-54918304D01*
X67113904Y-54918304D02*
X67075809Y-54870685D01*
X67075809Y-54870685D02*
X66999619Y-54823066D01*
X66999619Y-54823066D02*
X66847238Y-54799257D01*
X66847238Y-54799257D02*
X66580571Y-54799257D01*
X66580571Y-54799257D02*
X66428190Y-54823066D01*
X66428190Y-54823066D02*
X66352000Y-54870685D01*
X66352000Y-54870685D02*
X66313904Y-54918304D01*
X67113904Y-55584971D02*
X67113904Y-55346876D01*
X67113904Y-55346876D02*
X66313904Y-55346876D01*
X66390095Y-55727829D02*
X66352000Y-55751638D01*
X66352000Y-55751638D02*
X66313904Y-55799257D01*
X66313904Y-55799257D02*
X66313904Y-55918305D01*
X66313904Y-55918305D02*
X66352000Y-55965924D01*
X66352000Y-55965924D02*
X66390095Y-55989733D01*
X66390095Y-55989733D02*
X66466285Y-56013543D01*
X66466285Y-56013543D02*
X66542476Y-56013543D01*
X66542476Y-56013543D02*
X66656761Y-55989733D01*
X66656761Y-55989733D02*
X67113904Y-55704019D01*
X67113904Y-55704019D02*
X67113904Y-56013543D01*
X81074857Y-39397619D02*
X81112952Y-39469047D01*
X81112952Y-39469047D02*
X81151047Y-39492857D01*
X81151047Y-39492857D02*
X81227238Y-39516666D01*
X81227238Y-39516666D02*
X81341523Y-39516666D01*
X81341523Y-39516666D02*
X81417714Y-39492857D01*
X81417714Y-39492857D02*
X81455809Y-39469047D01*
X81455809Y-39469047D02*
X81493904Y-39421428D01*
X81493904Y-39421428D02*
X81493904Y-39230952D01*
X81493904Y-39230952D02*
X80693904Y-39230952D01*
X80693904Y-39230952D02*
X80693904Y-39397619D01*
X80693904Y-39397619D02*
X80732000Y-39445238D01*
X80732000Y-39445238D02*
X80770095Y-39469047D01*
X80770095Y-39469047D02*
X80846285Y-39492857D01*
X80846285Y-39492857D02*
X80922476Y-39492857D01*
X80922476Y-39492857D02*
X80998666Y-39469047D01*
X80998666Y-39469047D02*
X81036761Y-39445238D01*
X81036761Y-39445238D02*
X81074857Y-39397619D01*
X81074857Y-39397619D02*
X81074857Y-39230952D01*
X80693904Y-39969047D02*
X80693904Y-39730952D01*
X80693904Y-39730952D02*
X81074857Y-39707143D01*
X81074857Y-39707143D02*
X81036761Y-39730952D01*
X81036761Y-39730952D02*
X80998666Y-39778571D01*
X80998666Y-39778571D02*
X80998666Y-39897619D01*
X80998666Y-39897619D02*
X81036761Y-39945238D01*
X81036761Y-39945238D02*
X81074857Y-39969047D01*
X81074857Y-39969047D02*
X81151047Y-39992857D01*
X81151047Y-39992857D02*
X81341523Y-39992857D01*
X81341523Y-39992857D02*
X81417714Y-39969047D01*
X81417714Y-39969047D02*
X81455809Y-39945238D01*
X81455809Y-39945238D02*
X81493904Y-39897619D01*
X81493904Y-39897619D02*
X81493904Y-39778571D01*
X81493904Y-39778571D02*
X81455809Y-39730952D01*
X81455809Y-39730952D02*
X81417714Y-39707143D01*
X56255500Y-39350947D02*
X56217404Y-39303328D01*
X56217404Y-39303328D02*
X56217404Y-39231899D01*
X56217404Y-39231899D02*
X56255500Y-39160471D01*
X56255500Y-39160471D02*
X56331690Y-39112852D01*
X56331690Y-39112852D02*
X56407880Y-39089042D01*
X56407880Y-39089042D02*
X56560261Y-39065233D01*
X56560261Y-39065233D02*
X56674547Y-39065233D01*
X56674547Y-39065233D02*
X56826928Y-39089042D01*
X56826928Y-39089042D02*
X56903119Y-39112852D01*
X56903119Y-39112852D02*
X56979309Y-39160471D01*
X56979309Y-39160471D02*
X57017404Y-39231899D01*
X57017404Y-39231899D02*
X57017404Y-39279518D01*
X57017404Y-39279518D02*
X56979309Y-39350947D01*
X56979309Y-39350947D02*
X56941214Y-39374756D01*
X56941214Y-39374756D02*
X56674547Y-39374756D01*
X56674547Y-39374756D02*
X56674547Y-39279518D01*
X57017404Y-39589042D02*
X56217404Y-39589042D01*
X56217404Y-39589042D02*
X57017404Y-39874756D01*
X57017404Y-39874756D02*
X56217404Y-39874756D01*
X57017404Y-40112852D02*
X56217404Y-40112852D01*
X56217404Y-40112852D02*
X56217404Y-40231900D01*
X56217404Y-40231900D02*
X56255500Y-40303328D01*
X56255500Y-40303328D02*
X56331690Y-40350947D01*
X56331690Y-40350947D02*
X56407880Y-40374757D01*
X56407880Y-40374757D02*
X56560261Y-40398566D01*
X56560261Y-40398566D02*
X56674547Y-40398566D01*
X56674547Y-40398566D02*
X56826928Y-40374757D01*
X56826928Y-40374757D02*
X56903119Y-40350947D01*
X56903119Y-40350947D02*
X56979309Y-40303328D01*
X56979309Y-40303328D02*
X57017404Y-40231900D01*
X57017404Y-40231900D02*
X57017404Y-40112852D01*
X51873904Y-54626661D02*
X51492952Y-54459995D01*
X51873904Y-54340947D02*
X51073904Y-54340947D01*
X51073904Y-54340947D02*
X51073904Y-54531423D01*
X51073904Y-54531423D02*
X51112000Y-54579042D01*
X51112000Y-54579042D02*
X51150095Y-54602852D01*
X51150095Y-54602852D02*
X51226285Y-54626661D01*
X51226285Y-54626661D02*
X51340571Y-54626661D01*
X51340571Y-54626661D02*
X51416761Y-54602852D01*
X51416761Y-54602852D02*
X51454857Y-54579042D01*
X51454857Y-54579042D02*
X51492952Y-54531423D01*
X51492952Y-54531423D02*
X51492952Y-54340947D01*
X51645333Y-54817138D02*
X51645333Y-55055233D01*
X51873904Y-54769519D02*
X51073904Y-54936185D01*
X51073904Y-54936185D02*
X51873904Y-55102852D01*
X51073904Y-55221899D02*
X51873904Y-55340947D01*
X51873904Y-55340947D02*
X51302476Y-55436185D01*
X51302476Y-55436185D02*
X51873904Y-55531423D01*
X51873904Y-55531423D02*
X51073904Y-55650471D01*
X72201904Y-39425447D02*
X71820952Y-39258781D01*
X72201904Y-39139733D02*
X71401904Y-39139733D01*
X71401904Y-39139733D02*
X71401904Y-39330209D01*
X71401904Y-39330209D02*
X71440000Y-39377828D01*
X71440000Y-39377828D02*
X71478095Y-39401638D01*
X71478095Y-39401638D02*
X71554285Y-39425447D01*
X71554285Y-39425447D02*
X71668571Y-39425447D01*
X71668571Y-39425447D02*
X71744761Y-39401638D01*
X71744761Y-39401638D02*
X71782857Y-39377828D01*
X71782857Y-39377828D02*
X71820952Y-39330209D01*
X71820952Y-39330209D02*
X71820952Y-39139733D01*
X71401904Y-39734971D02*
X71401904Y-39830209D01*
X71401904Y-39830209D02*
X71440000Y-39877828D01*
X71440000Y-39877828D02*
X71516190Y-39925447D01*
X71516190Y-39925447D02*
X71668571Y-39949257D01*
X71668571Y-39949257D02*
X71935238Y-39949257D01*
X71935238Y-39949257D02*
X72087619Y-39925447D01*
X72087619Y-39925447D02*
X72163809Y-39877828D01*
X72163809Y-39877828D02*
X72201904Y-39830209D01*
X72201904Y-39830209D02*
X72201904Y-39734971D01*
X72201904Y-39734971D02*
X72163809Y-39687352D01*
X72163809Y-39687352D02*
X72087619Y-39639733D01*
X72087619Y-39639733D02*
X71935238Y-39615924D01*
X71935238Y-39615924D02*
X71668571Y-39615924D01*
X71668571Y-39615924D02*
X71516190Y-39639733D01*
X71516190Y-39639733D02*
X71440000Y-39687352D01*
X71440000Y-39687352D02*
X71401904Y-39734971D01*
X71401904Y-40115924D02*
X72201904Y-40234972D01*
X72201904Y-40234972D02*
X71630476Y-40330210D01*
X71630476Y-40330210D02*
X72201904Y-40425448D01*
X72201904Y-40425448D02*
X71401904Y-40544496D01*
X71478095Y-40711163D02*
X71440000Y-40734972D01*
X71440000Y-40734972D02*
X71401904Y-40782591D01*
X71401904Y-40782591D02*
X71401904Y-40901639D01*
X71401904Y-40901639D02*
X71440000Y-40949258D01*
X71440000Y-40949258D02*
X71478095Y-40973067D01*
X71478095Y-40973067D02*
X71554285Y-40996877D01*
X71554285Y-40996877D02*
X71630476Y-40996877D01*
X71630476Y-40996877D02*
X71744761Y-40973067D01*
X71744761Y-40973067D02*
X72201904Y-40687353D01*
X72201904Y-40687353D02*
X72201904Y-40996877D01*
X61975714Y-54608780D02*
X62013809Y-54584971D01*
X62013809Y-54584971D02*
X62051904Y-54513542D01*
X62051904Y-54513542D02*
X62051904Y-54465923D01*
X62051904Y-54465923D02*
X62013809Y-54394495D01*
X62013809Y-54394495D02*
X61937619Y-54346876D01*
X61937619Y-54346876D02*
X61861428Y-54323066D01*
X61861428Y-54323066D02*
X61709047Y-54299257D01*
X61709047Y-54299257D02*
X61594761Y-54299257D01*
X61594761Y-54299257D02*
X61442380Y-54323066D01*
X61442380Y-54323066D02*
X61366190Y-54346876D01*
X61366190Y-54346876D02*
X61290000Y-54394495D01*
X61290000Y-54394495D02*
X61251904Y-54465923D01*
X61251904Y-54465923D02*
X61251904Y-54513542D01*
X61251904Y-54513542D02*
X61290000Y-54584971D01*
X61290000Y-54584971D02*
X61328095Y-54608780D01*
X61251904Y-54918304D02*
X61251904Y-55013542D01*
X61251904Y-55013542D02*
X61290000Y-55061161D01*
X61290000Y-55061161D02*
X61366190Y-55108780D01*
X61366190Y-55108780D02*
X61518571Y-55132590D01*
X61518571Y-55132590D02*
X61785238Y-55132590D01*
X61785238Y-55132590D02*
X61937619Y-55108780D01*
X61937619Y-55108780D02*
X62013809Y-55061161D01*
X62013809Y-55061161D02*
X62051904Y-55013542D01*
X62051904Y-55013542D02*
X62051904Y-54918304D01*
X62051904Y-54918304D02*
X62013809Y-54870685D01*
X62013809Y-54870685D02*
X61937619Y-54823066D01*
X61937619Y-54823066D02*
X61785238Y-54799257D01*
X61785238Y-54799257D02*
X61518571Y-54799257D01*
X61518571Y-54799257D02*
X61366190Y-54823066D01*
X61366190Y-54823066D02*
X61290000Y-54870685D01*
X61290000Y-54870685D02*
X61251904Y-54918304D01*
X62051904Y-55584971D02*
X62051904Y-55346876D01*
X62051904Y-55346876D02*
X61251904Y-55346876D01*
X61251904Y-55846876D02*
X61251904Y-55894495D01*
X61251904Y-55894495D02*
X61290000Y-55942114D01*
X61290000Y-55942114D02*
X61328095Y-55965924D01*
X61328095Y-55965924D02*
X61404285Y-55989733D01*
X61404285Y-55989733D02*
X61556666Y-56013543D01*
X61556666Y-56013543D02*
X61747142Y-56013543D01*
X61747142Y-56013543D02*
X61899523Y-55989733D01*
X61899523Y-55989733D02*
X61975714Y-55965924D01*
X61975714Y-55965924D02*
X62013809Y-55942114D01*
X62013809Y-55942114D02*
X62051904Y-55894495D01*
X62051904Y-55894495D02*
X62051904Y-55846876D01*
X62051904Y-55846876D02*
X62013809Y-55799257D01*
X62013809Y-55799257D02*
X61975714Y-55775448D01*
X61975714Y-55775448D02*
X61899523Y-55751638D01*
X61899523Y-55751638D02*
X61747142Y-55727829D01*
X61747142Y-55727829D02*
X61556666Y-55727829D01*
X61556666Y-55727829D02*
X61404285Y-55751638D01*
X61404285Y-55751638D02*
X61328095Y-55775448D01*
X61328095Y-55775448D02*
X61290000Y-55799257D01*
X61290000Y-55799257D02*
X61251904Y-55846876D01*
X76882857Y-55004019D02*
X76920952Y-55075447D01*
X76920952Y-55075447D02*
X76959047Y-55099257D01*
X76959047Y-55099257D02*
X77035238Y-55123066D01*
X77035238Y-55123066D02*
X77149523Y-55123066D01*
X77149523Y-55123066D02*
X77225714Y-55099257D01*
X77225714Y-55099257D02*
X77263809Y-55075447D01*
X77263809Y-55075447D02*
X77301904Y-55027828D01*
X77301904Y-55027828D02*
X77301904Y-54837352D01*
X77301904Y-54837352D02*
X76501904Y-54837352D01*
X76501904Y-54837352D02*
X76501904Y-55004019D01*
X76501904Y-55004019D02*
X76540000Y-55051638D01*
X76540000Y-55051638D02*
X76578095Y-55075447D01*
X76578095Y-55075447D02*
X76654285Y-55099257D01*
X76654285Y-55099257D02*
X76730476Y-55099257D01*
X76730476Y-55099257D02*
X76806666Y-55075447D01*
X76806666Y-55075447D02*
X76844761Y-55051638D01*
X76844761Y-55051638D02*
X76882857Y-55004019D01*
X76882857Y-55004019D02*
X76882857Y-54837352D01*
X76578095Y-55313543D02*
X76540000Y-55337352D01*
X76540000Y-55337352D02*
X76501904Y-55384971D01*
X76501904Y-55384971D02*
X76501904Y-55504019D01*
X76501904Y-55504019D02*
X76540000Y-55551638D01*
X76540000Y-55551638D02*
X76578095Y-55575447D01*
X76578095Y-55575447D02*
X76654285Y-55599257D01*
X76654285Y-55599257D02*
X76730476Y-55599257D01*
X76730476Y-55599257D02*
X76844761Y-55575447D01*
X76844761Y-55575447D02*
X77301904Y-55289733D01*
X77301904Y-55289733D02*
X77301904Y-55599257D01*
X53652000Y-54590947D02*
X53613904Y-54543328D01*
X53613904Y-54543328D02*
X53613904Y-54471899D01*
X53613904Y-54471899D02*
X53652000Y-54400471D01*
X53652000Y-54400471D02*
X53728190Y-54352852D01*
X53728190Y-54352852D02*
X53804380Y-54329042D01*
X53804380Y-54329042D02*
X53956761Y-54305233D01*
X53956761Y-54305233D02*
X54071047Y-54305233D01*
X54071047Y-54305233D02*
X54223428Y-54329042D01*
X54223428Y-54329042D02*
X54299619Y-54352852D01*
X54299619Y-54352852D02*
X54375809Y-54400471D01*
X54375809Y-54400471D02*
X54413904Y-54471899D01*
X54413904Y-54471899D02*
X54413904Y-54519518D01*
X54413904Y-54519518D02*
X54375809Y-54590947D01*
X54375809Y-54590947D02*
X54337714Y-54614756D01*
X54337714Y-54614756D02*
X54071047Y-54614756D01*
X54071047Y-54614756D02*
X54071047Y-54519518D01*
X54413904Y-54829042D02*
X53613904Y-54829042D01*
X53613904Y-54829042D02*
X54413904Y-55114756D01*
X54413904Y-55114756D02*
X53613904Y-55114756D01*
X54413904Y-55352852D02*
X53613904Y-55352852D01*
X53613904Y-55352852D02*
X53613904Y-55471900D01*
X53613904Y-55471900D02*
X53652000Y-55543328D01*
X53652000Y-55543328D02*
X53728190Y-55590947D01*
X53728190Y-55590947D02*
X53804380Y-55614757D01*
X53804380Y-55614757D02*
X53956761Y-55638566D01*
X53956761Y-55638566D02*
X54071047Y-55638566D01*
X54071047Y-55638566D02*
X54223428Y-55614757D01*
X54223428Y-55614757D02*
X54299619Y-55590947D01*
X54299619Y-55590947D02*
X54375809Y-55543328D01*
X54375809Y-55543328D02*
X54413904Y-55471900D01*
X54413904Y-55471900D02*
X54413904Y-55352852D01*
X74721214Y-54658780D02*
X74759309Y-54634971D01*
X74759309Y-54634971D02*
X74797404Y-54563542D01*
X74797404Y-54563542D02*
X74797404Y-54515923D01*
X74797404Y-54515923D02*
X74759309Y-54444495D01*
X74759309Y-54444495D02*
X74683119Y-54396876D01*
X74683119Y-54396876D02*
X74606928Y-54373066D01*
X74606928Y-54373066D02*
X74454547Y-54349257D01*
X74454547Y-54349257D02*
X74340261Y-54349257D01*
X74340261Y-54349257D02*
X74187880Y-54373066D01*
X74187880Y-54373066D02*
X74111690Y-54396876D01*
X74111690Y-54396876D02*
X74035500Y-54444495D01*
X74035500Y-54444495D02*
X73997404Y-54515923D01*
X73997404Y-54515923D02*
X73997404Y-54563542D01*
X73997404Y-54563542D02*
X74035500Y-54634971D01*
X74035500Y-54634971D02*
X74073595Y-54658780D01*
X73997404Y-54968304D02*
X73997404Y-55063542D01*
X73997404Y-55063542D02*
X74035500Y-55111161D01*
X74035500Y-55111161D02*
X74111690Y-55158780D01*
X74111690Y-55158780D02*
X74264071Y-55182590D01*
X74264071Y-55182590D02*
X74530738Y-55182590D01*
X74530738Y-55182590D02*
X74683119Y-55158780D01*
X74683119Y-55158780D02*
X74759309Y-55111161D01*
X74759309Y-55111161D02*
X74797404Y-55063542D01*
X74797404Y-55063542D02*
X74797404Y-54968304D01*
X74797404Y-54968304D02*
X74759309Y-54920685D01*
X74759309Y-54920685D02*
X74683119Y-54873066D01*
X74683119Y-54873066D02*
X74530738Y-54849257D01*
X74530738Y-54849257D02*
X74264071Y-54849257D01*
X74264071Y-54849257D02*
X74111690Y-54873066D01*
X74111690Y-54873066D02*
X74035500Y-54920685D01*
X74035500Y-54920685D02*
X73997404Y-54968304D01*
X74797404Y-55634971D02*
X74797404Y-55396876D01*
X74797404Y-55396876D02*
X73997404Y-55396876D01*
X73997404Y-56039733D02*
X73997404Y-55801638D01*
X73997404Y-55801638D02*
X74378357Y-55777829D01*
X74378357Y-55777829D02*
X74340261Y-55801638D01*
X74340261Y-55801638D02*
X74302166Y-55849257D01*
X74302166Y-55849257D02*
X74302166Y-55968305D01*
X74302166Y-55968305D02*
X74340261Y-56015924D01*
X74340261Y-56015924D02*
X74378357Y-56039733D01*
X74378357Y-56039733D02*
X74454547Y-56063543D01*
X74454547Y-56063543D02*
X74645023Y-56063543D01*
X74645023Y-56063543D02*
X74721214Y-56039733D01*
X74721214Y-56039733D02*
X74759309Y-56015924D01*
X74759309Y-56015924D02*
X74797404Y-55968305D01*
X74797404Y-55968305D02*
X74797404Y-55849257D01*
X74797404Y-55849257D02*
X74759309Y-55801638D01*
X74759309Y-55801638D02*
X74721214Y-55777829D01*
X57017404Y-54698090D02*
X56636452Y-54531424D01*
X57017404Y-54412376D02*
X56217404Y-54412376D01*
X56217404Y-54412376D02*
X56217404Y-54602852D01*
X56217404Y-54602852D02*
X56255500Y-54650471D01*
X56255500Y-54650471D02*
X56293595Y-54674281D01*
X56293595Y-54674281D02*
X56369785Y-54698090D01*
X56369785Y-54698090D02*
X56484071Y-54698090D01*
X56484071Y-54698090D02*
X56560261Y-54674281D01*
X56560261Y-54674281D02*
X56598357Y-54650471D01*
X56598357Y-54650471D02*
X56636452Y-54602852D01*
X56636452Y-54602852D02*
X56636452Y-54412376D01*
X56979309Y-54888567D02*
X57017404Y-54959995D01*
X57017404Y-54959995D02*
X57017404Y-55079043D01*
X57017404Y-55079043D02*
X56979309Y-55126662D01*
X56979309Y-55126662D02*
X56941214Y-55150471D01*
X56941214Y-55150471D02*
X56865023Y-55174281D01*
X56865023Y-55174281D02*
X56788833Y-55174281D01*
X56788833Y-55174281D02*
X56712642Y-55150471D01*
X56712642Y-55150471D02*
X56674547Y-55126662D01*
X56674547Y-55126662D02*
X56636452Y-55079043D01*
X56636452Y-55079043D02*
X56598357Y-54983805D01*
X56598357Y-54983805D02*
X56560261Y-54936186D01*
X56560261Y-54936186D02*
X56522166Y-54912376D01*
X56522166Y-54912376D02*
X56445976Y-54888567D01*
X56445976Y-54888567D02*
X56369785Y-54888567D01*
X56369785Y-54888567D02*
X56293595Y-54912376D01*
X56293595Y-54912376D02*
X56255500Y-54936186D01*
X56255500Y-54936186D02*
X56217404Y-54983805D01*
X56217404Y-54983805D02*
X56217404Y-55102852D01*
X56217404Y-55102852D02*
X56255500Y-55174281D01*
X56217404Y-55317138D02*
X56217404Y-55602852D01*
X57017404Y-55459995D02*
X56217404Y-55459995D01*
X69625714Y-54708780D02*
X69663809Y-54684971D01*
X69663809Y-54684971D02*
X69701904Y-54613542D01*
X69701904Y-54613542D02*
X69701904Y-54565923D01*
X69701904Y-54565923D02*
X69663809Y-54494495D01*
X69663809Y-54494495D02*
X69587619Y-54446876D01*
X69587619Y-54446876D02*
X69511428Y-54423066D01*
X69511428Y-54423066D02*
X69359047Y-54399257D01*
X69359047Y-54399257D02*
X69244761Y-54399257D01*
X69244761Y-54399257D02*
X69092380Y-54423066D01*
X69092380Y-54423066D02*
X69016190Y-54446876D01*
X69016190Y-54446876D02*
X68940000Y-54494495D01*
X68940000Y-54494495D02*
X68901904Y-54565923D01*
X68901904Y-54565923D02*
X68901904Y-54613542D01*
X68901904Y-54613542D02*
X68940000Y-54684971D01*
X68940000Y-54684971D02*
X68978095Y-54708780D01*
X68901904Y-55018304D02*
X68901904Y-55113542D01*
X68901904Y-55113542D02*
X68940000Y-55161161D01*
X68940000Y-55161161D02*
X69016190Y-55208780D01*
X69016190Y-55208780D02*
X69168571Y-55232590D01*
X69168571Y-55232590D02*
X69435238Y-55232590D01*
X69435238Y-55232590D02*
X69587619Y-55208780D01*
X69587619Y-55208780D02*
X69663809Y-55161161D01*
X69663809Y-55161161D02*
X69701904Y-55113542D01*
X69701904Y-55113542D02*
X69701904Y-55018304D01*
X69701904Y-55018304D02*
X69663809Y-54970685D01*
X69663809Y-54970685D02*
X69587619Y-54923066D01*
X69587619Y-54923066D02*
X69435238Y-54899257D01*
X69435238Y-54899257D02*
X69168571Y-54899257D01*
X69168571Y-54899257D02*
X69016190Y-54923066D01*
X69016190Y-54923066D02*
X68940000Y-54970685D01*
X68940000Y-54970685D02*
X68901904Y-55018304D01*
X69701904Y-55684971D02*
X69701904Y-55446876D01*
X69701904Y-55446876D02*
X68901904Y-55446876D01*
X68901904Y-55804019D02*
X68901904Y-56113543D01*
X68901904Y-56113543D02*
X69206666Y-55946876D01*
X69206666Y-55946876D02*
X69206666Y-56018305D01*
X69206666Y-56018305D02*
X69244761Y-56065924D01*
X69244761Y-56065924D02*
X69282857Y-56089733D01*
X69282857Y-56089733D02*
X69359047Y-56113543D01*
X69359047Y-56113543D02*
X69549523Y-56113543D01*
X69549523Y-56113543D02*
X69625714Y-56089733D01*
X69625714Y-56089733D02*
X69663809Y-56065924D01*
X69663809Y-56065924D02*
X69701904Y-56018305D01*
X69701904Y-56018305D02*
X69701904Y-55875448D01*
X69701904Y-55875448D02*
X69663809Y-55827829D01*
X69663809Y-55827829D02*
X69625714Y-55804019D01*
X67151904Y-39425447D02*
X66770952Y-39258781D01*
X67151904Y-39139733D02*
X66351904Y-39139733D01*
X66351904Y-39139733D02*
X66351904Y-39330209D01*
X66351904Y-39330209D02*
X66390000Y-39377828D01*
X66390000Y-39377828D02*
X66428095Y-39401638D01*
X66428095Y-39401638D02*
X66504285Y-39425447D01*
X66504285Y-39425447D02*
X66618571Y-39425447D01*
X66618571Y-39425447D02*
X66694761Y-39401638D01*
X66694761Y-39401638D02*
X66732857Y-39377828D01*
X66732857Y-39377828D02*
X66770952Y-39330209D01*
X66770952Y-39330209D02*
X66770952Y-39139733D01*
X66351904Y-39734971D02*
X66351904Y-39830209D01*
X66351904Y-39830209D02*
X66390000Y-39877828D01*
X66390000Y-39877828D02*
X66466190Y-39925447D01*
X66466190Y-39925447D02*
X66618571Y-39949257D01*
X66618571Y-39949257D02*
X66885238Y-39949257D01*
X66885238Y-39949257D02*
X67037619Y-39925447D01*
X67037619Y-39925447D02*
X67113809Y-39877828D01*
X67113809Y-39877828D02*
X67151904Y-39830209D01*
X67151904Y-39830209D02*
X67151904Y-39734971D01*
X67151904Y-39734971D02*
X67113809Y-39687352D01*
X67113809Y-39687352D02*
X67037619Y-39639733D01*
X67037619Y-39639733D02*
X66885238Y-39615924D01*
X66885238Y-39615924D02*
X66618571Y-39615924D01*
X66618571Y-39615924D02*
X66466190Y-39639733D01*
X66466190Y-39639733D02*
X66390000Y-39687352D01*
X66390000Y-39687352D02*
X66351904Y-39734971D01*
X66351904Y-40115924D02*
X67151904Y-40234972D01*
X67151904Y-40234972D02*
X66580476Y-40330210D01*
X66580476Y-40330210D02*
X67151904Y-40425448D01*
X67151904Y-40425448D02*
X66351904Y-40544496D01*
X66351904Y-40830210D02*
X66351904Y-40877829D01*
X66351904Y-40877829D02*
X66390000Y-40925448D01*
X66390000Y-40925448D02*
X66428095Y-40949258D01*
X66428095Y-40949258D02*
X66504285Y-40973067D01*
X66504285Y-40973067D02*
X66656666Y-40996877D01*
X66656666Y-40996877D02*
X66847142Y-40996877D01*
X66847142Y-40996877D02*
X66999523Y-40973067D01*
X66999523Y-40973067D02*
X67075714Y-40949258D01*
X67075714Y-40949258D02*
X67113809Y-40925448D01*
X67113809Y-40925448D02*
X67151904Y-40877829D01*
X67151904Y-40877829D02*
X67151904Y-40830210D01*
X67151904Y-40830210D02*
X67113809Y-40782591D01*
X67113809Y-40782591D02*
X67075714Y-40758782D01*
X67075714Y-40758782D02*
X66999523Y-40734972D01*
X66999523Y-40734972D02*
X66847142Y-40711163D01*
X66847142Y-40711163D02*
X66656666Y-40711163D01*
X66656666Y-40711163D02*
X66504285Y-40734972D01*
X66504285Y-40734972D02*
X66428095Y-40758782D01*
X66428095Y-40758782D02*
X66390000Y-40782591D01*
X66390000Y-40782591D02*
X66351904Y-40830210D01*
X74797404Y-39425447D02*
X74416452Y-39258781D01*
X74797404Y-39139733D02*
X73997404Y-39139733D01*
X73997404Y-39139733D02*
X73997404Y-39330209D01*
X73997404Y-39330209D02*
X74035500Y-39377828D01*
X74035500Y-39377828D02*
X74073595Y-39401638D01*
X74073595Y-39401638D02*
X74149785Y-39425447D01*
X74149785Y-39425447D02*
X74264071Y-39425447D01*
X74264071Y-39425447D02*
X74340261Y-39401638D01*
X74340261Y-39401638D02*
X74378357Y-39377828D01*
X74378357Y-39377828D02*
X74416452Y-39330209D01*
X74416452Y-39330209D02*
X74416452Y-39139733D01*
X73997404Y-39734971D02*
X73997404Y-39830209D01*
X73997404Y-39830209D02*
X74035500Y-39877828D01*
X74035500Y-39877828D02*
X74111690Y-39925447D01*
X74111690Y-39925447D02*
X74264071Y-39949257D01*
X74264071Y-39949257D02*
X74530738Y-39949257D01*
X74530738Y-39949257D02*
X74683119Y-39925447D01*
X74683119Y-39925447D02*
X74759309Y-39877828D01*
X74759309Y-39877828D02*
X74797404Y-39830209D01*
X74797404Y-39830209D02*
X74797404Y-39734971D01*
X74797404Y-39734971D02*
X74759309Y-39687352D01*
X74759309Y-39687352D02*
X74683119Y-39639733D01*
X74683119Y-39639733D02*
X74530738Y-39615924D01*
X74530738Y-39615924D02*
X74264071Y-39615924D01*
X74264071Y-39615924D02*
X74111690Y-39639733D01*
X74111690Y-39639733D02*
X74035500Y-39687352D01*
X74035500Y-39687352D02*
X73997404Y-39734971D01*
X73997404Y-40115924D02*
X74797404Y-40234972D01*
X74797404Y-40234972D02*
X74225976Y-40330210D01*
X74225976Y-40330210D02*
X74797404Y-40425448D01*
X74797404Y-40425448D02*
X73997404Y-40544496D01*
X73997404Y-40687353D02*
X73997404Y-40996877D01*
X73997404Y-40996877D02*
X74302166Y-40830210D01*
X74302166Y-40830210D02*
X74302166Y-40901639D01*
X74302166Y-40901639D02*
X74340261Y-40949258D01*
X74340261Y-40949258D02*
X74378357Y-40973067D01*
X74378357Y-40973067D02*
X74454547Y-40996877D01*
X74454547Y-40996877D02*
X74645023Y-40996877D01*
X74645023Y-40996877D02*
X74721214Y-40973067D01*
X74721214Y-40973067D02*
X74759309Y-40949258D01*
X74759309Y-40949258D02*
X74797404Y-40901639D01*
X74797404Y-40901639D02*
X74797404Y-40758782D01*
X74797404Y-40758782D02*
X74759309Y-40711163D01*
X74759309Y-40711163D02*
X74721214Y-40687353D01*
X54401904Y-39156400D02*
X53601904Y-39156400D01*
X53601904Y-39156400D02*
X53601904Y-39275448D01*
X53601904Y-39275448D02*
X53640000Y-39346876D01*
X53640000Y-39346876D02*
X53716190Y-39394495D01*
X53716190Y-39394495D02*
X53792380Y-39418305D01*
X53792380Y-39418305D02*
X53944761Y-39442114D01*
X53944761Y-39442114D02*
X54059047Y-39442114D01*
X54059047Y-39442114D02*
X54211428Y-39418305D01*
X54211428Y-39418305D02*
X54287619Y-39394495D01*
X54287619Y-39394495D02*
X54363809Y-39346876D01*
X54363809Y-39346876D02*
X54401904Y-39275448D01*
X54401904Y-39275448D02*
X54401904Y-39156400D01*
X54173333Y-39632591D02*
X54173333Y-39870686D01*
X54401904Y-39584972D02*
X53601904Y-39751638D01*
X53601904Y-39751638D02*
X54401904Y-39918305D01*
X53601904Y-40013543D02*
X53601904Y-40299257D01*
X54401904Y-40156400D02*
X53601904Y-40156400D01*
X54173333Y-40442114D02*
X54173333Y-40680209D01*
X54401904Y-40394495D02*
X53601904Y-40561161D01*
X53601904Y-40561161D02*
X54401904Y-40727828D01*
X69653904Y-39375447D02*
X69272952Y-39208781D01*
X69653904Y-39089733D02*
X68853904Y-39089733D01*
X68853904Y-39089733D02*
X68853904Y-39280209D01*
X68853904Y-39280209D02*
X68892000Y-39327828D01*
X68892000Y-39327828D02*
X68930095Y-39351638D01*
X68930095Y-39351638D02*
X69006285Y-39375447D01*
X69006285Y-39375447D02*
X69120571Y-39375447D01*
X69120571Y-39375447D02*
X69196761Y-39351638D01*
X69196761Y-39351638D02*
X69234857Y-39327828D01*
X69234857Y-39327828D02*
X69272952Y-39280209D01*
X69272952Y-39280209D02*
X69272952Y-39089733D01*
X68853904Y-39684971D02*
X68853904Y-39780209D01*
X68853904Y-39780209D02*
X68892000Y-39827828D01*
X68892000Y-39827828D02*
X68968190Y-39875447D01*
X68968190Y-39875447D02*
X69120571Y-39899257D01*
X69120571Y-39899257D02*
X69387238Y-39899257D01*
X69387238Y-39899257D02*
X69539619Y-39875447D01*
X69539619Y-39875447D02*
X69615809Y-39827828D01*
X69615809Y-39827828D02*
X69653904Y-39780209D01*
X69653904Y-39780209D02*
X69653904Y-39684971D01*
X69653904Y-39684971D02*
X69615809Y-39637352D01*
X69615809Y-39637352D02*
X69539619Y-39589733D01*
X69539619Y-39589733D02*
X69387238Y-39565924D01*
X69387238Y-39565924D02*
X69120571Y-39565924D01*
X69120571Y-39565924D02*
X68968190Y-39589733D01*
X68968190Y-39589733D02*
X68892000Y-39637352D01*
X68892000Y-39637352D02*
X68853904Y-39684971D01*
X68853904Y-40065924D02*
X69653904Y-40184972D01*
X69653904Y-40184972D02*
X69082476Y-40280210D01*
X69082476Y-40280210D02*
X69653904Y-40375448D01*
X69653904Y-40375448D02*
X68853904Y-40494496D01*
X69653904Y-40946877D02*
X69653904Y-40661163D01*
X69653904Y-40804020D02*
X68853904Y-40804020D01*
X68853904Y-40804020D02*
X68968190Y-40756401D01*
X68968190Y-40756401D02*
X69044380Y-40708782D01*
X69044380Y-40708782D02*
X69082476Y-40661163D01*
X72125714Y-54658780D02*
X72163809Y-54634971D01*
X72163809Y-54634971D02*
X72201904Y-54563542D01*
X72201904Y-54563542D02*
X72201904Y-54515923D01*
X72201904Y-54515923D02*
X72163809Y-54444495D01*
X72163809Y-54444495D02*
X72087619Y-54396876D01*
X72087619Y-54396876D02*
X72011428Y-54373066D01*
X72011428Y-54373066D02*
X71859047Y-54349257D01*
X71859047Y-54349257D02*
X71744761Y-54349257D01*
X71744761Y-54349257D02*
X71592380Y-54373066D01*
X71592380Y-54373066D02*
X71516190Y-54396876D01*
X71516190Y-54396876D02*
X71440000Y-54444495D01*
X71440000Y-54444495D02*
X71401904Y-54515923D01*
X71401904Y-54515923D02*
X71401904Y-54563542D01*
X71401904Y-54563542D02*
X71440000Y-54634971D01*
X71440000Y-54634971D02*
X71478095Y-54658780D01*
X71401904Y-54968304D02*
X71401904Y-55063542D01*
X71401904Y-55063542D02*
X71440000Y-55111161D01*
X71440000Y-55111161D02*
X71516190Y-55158780D01*
X71516190Y-55158780D02*
X71668571Y-55182590D01*
X71668571Y-55182590D02*
X71935238Y-55182590D01*
X71935238Y-55182590D02*
X72087619Y-55158780D01*
X72087619Y-55158780D02*
X72163809Y-55111161D01*
X72163809Y-55111161D02*
X72201904Y-55063542D01*
X72201904Y-55063542D02*
X72201904Y-54968304D01*
X72201904Y-54968304D02*
X72163809Y-54920685D01*
X72163809Y-54920685D02*
X72087619Y-54873066D01*
X72087619Y-54873066D02*
X71935238Y-54849257D01*
X71935238Y-54849257D02*
X71668571Y-54849257D01*
X71668571Y-54849257D02*
X71516190Y-54873066D01*
X71516190Y-54873066D02*
X71440000Y-54920685D01*
X71440000Y-54920685D02*
X71401904Y-54968304D01*
X72201904Y-55634971D02*
X72201904Y-55396876D01*
X72201904Y-55396876D02*
X71401904Y-55396876D01*
X71668571Y-56015924D02*
X72201904Y-56015924D01*
X71363809Y-55896876D02*
X71935238Y-55777829D01*
X71935238Y-55777829D02*
X71935238Y-56087352D01*
X64497714Y-54558780D02*
X64535809Y-54534971D01*
X64535809Y-54534971D02*
X64573904Y-54463542D01*
X64573904Y-54463542D02*
X64573904Y-54415923D01*
X64573904Y-54415923D02*
X64535809Y-54344495D01*
X64535809Y-54344495D02*
X64459619Y-54296876D01*
X64459619Y-54296876D02*
X64383428Y-54273066D01*
X64383428Y-54273066D02*
X64231047Y-54249257D01*
X64231047Y-54249257D02*
X64116761Y-54249257D01*
X64116761Y-54249257D02*
X63964380Y-54273066D01*
X63964380Y-54273066D02*
X63888190Y-54296876D01*
X63888190Y-54296876D02*
X63812000Y-54344495D01*
X63812000Y-54344495D02*
X63773904Y-54415923D01*
X63773904Y-54415923D02*
X63773904Y-54463542D01*
X63773904Y-54463542D02*
X63812000Y-54534971D01*
X63812000Y-54534971D02*
X63850095Y-54558780D01*
X63773904Y-54868304D02*
X63773904Y-54963542D01*
X63773904Y-54963542D02*
X63812000Y-55011161D01*
X63812000Y-55011161D02*
X63888190Y-55058780D01*
X63888190Y-55058780D02*
X64040571Y-55082590D01*
X64040571Y-55082590D02*
X64307238Y-55082590D01*
X64307238Y-55082590D02*
X64459619Y-55058780D01*
X64459619Y-55058780D02*
X64535809Y-55011161D01*
X64535809Y-55011161D02*
X64573904Y-54963542D01*
X64573904Y-54963542D02*
X64573904Y-54868304D01*
X64573904Y-54868304D02*
X64535809Y-54820685D01*
X64535809Y-54820685D02*
X64459619Y-54773066D01*
X64459619Y-54773066D02*
X64307238Y-54749257D01*
X64307238Y-54749257D02*
X64040571Y-54749257D01*
X64040571Y-54749257D02*
X63888190Y-54773066D01*
X63888190Y-54773066D02*
X63812000Y-54820685D01*
X63812000Y-54820685D02*
X63773904Y-54868304D01*
X64573904Y-55534971D02*
X64573904Y-55296876D01*
X64573904Y-55296876D02*
X63773904Y-55296876D01*
X64573904Y-55963543D02*
X64573904Y-55677829D01*
X64573904Y-55820686D02*
X63773904Y-55820686D01*
X63773904Y-55820686D02*
X63888190Y-55773067D01*
X63888190Y-55773067D02*
X63964380Y-55725448D01*
X63964380Y-55725448D02*
X64002476Y-55677829D01*
X51873904Y-39434971D02*
X51873904Y-39196876D01*
X51873904Y-39196876D02*
X51073904Y-39196876D01*
X51454857Y-39601638D02*
X51454857Y-39768305D01*
X51873904Y-39839733D02*
X51873904Y-39601638D01*
X51873904Y-39601638D02*
X51073904Y-39601638D01*
X51073904Y-39601638D02*
X51073904Y-39839733D01*
X51873904Y-40054019D02*
X51073904Y-40054019D01*
X51073904Y-40054019D02*
X51073904Y-40173067D01*
X51073904Y-40173067D02*
X51112000Y-40244495D01*
X51112000Y-40244495D02*
X51188190Y-40292114D01*
X51188190Y-40292114D02*
X51264380Y-40315924D01*
X51264380Y-40315924D02*
X51416761Y-40339733D01*
X51416761Y-40339733D02*
X51531047Y-40339733D01*
X51531047Y-40339733D02*
X51683428Y-40315924D01*
X51683428Y-40315924D02*
X51759619Y-40292114D01*
X51759619Y-40292114D02*
X51835809Y-40244495D01*
X51835809Y-40244495D02*
X51873904Y-40173067D01*
X51873904Y-40173067D02*
X51873904Y-40054019D01*
X79432857Y-55104019D02*
X79470952Y-55175447D01*
X79470952Y-55175447D02*
X79509047Y-55199257D01*
X79509047Y-55199257D02*
X79585238Y-55223066D01*
X79585238Y-55223066D02*
X79699523Y-55223066D01*
X79699523Y-55223066D02*
X79775714Y-55199257D01*
X79775714Y-55199257D02*
X79813809Y-55175447D01*
X79813809Y-55175447D02*
X79851904Y-55127828D01*
X79851904Y-55127828D02*
X79851904Y-54937352D01*
X79851904Y-54937352D02*
X79051904Y-54937352D01*
X79051904Y-54937352D02*
X79051904Y-55104019D01*
X79051904Y-55104019D02*
X79090000Y-55151638D01*
X79090000Y-55151638D02*
X79128095Y-55175447D01*
X79128095Y-55175447D02*
X79204285Y-55199257D01*
X79204285Y-55199257D02*
X79280476Y-55199257D01*
X79280476Y-55199257D02*
X79356666Y-55175447D01*
X79356666Y-55175447D02*
X79394761Y-55151638D01*
X79394761Y-55151638D02*
X79432857Y-55104019D01*
X79432857Y-55104019D02*
X79432857Y-54937352D01*
X79051904Y-55651638D02*
X79051904Y-55556400D01*
X79051904Y-55556400D02*
X79090000Y-55508781D01*
X79090000Y-55508781D02*
X79128095Y-55484971D01*
X79128095Y-55484971D02*
X79242380Y-55437352D01*
X79242380Y-55437352D02*
X79394761Y-55413543D01*
X79394761Y-55413543D02*
X79699523Y-55413543D01*
X79699523Y-55413543D02*
X79775714Y-55437352D01*
X79775714Y-55437352D02*
X79813809Y-55461162D01*
X79813809Y-55461162D02*
X79851904Y-55508781D01*
X79851904Y-55508781D02*
X79851904Y-55604019D01*
X79851904Y-55604019D02*
X79813809Y-55651638D01*
X79813809Y-55651638D02*
X79775714Y-55675447D01*
X79775714Y-55675447D02*
X79699523Y-55699257D01*
X79699523Y-55699257D02*
X79509047Y-55699257D01*
X79509047Y-55699257D02*
X79432857Y-55675447D01*
X79432857Y-55675447D02*
X79394761Y-55651638D01*
X79394761Y-55651638D02*
X79356666Y-55604019D01*
X79356666Y-55604019D02*
X79356666Y-55508781D01*
X79356666Y-55508781D02*
X79394761Y-55461162D01*
X79394761Y-55461162D02*
X79432857Y-55437352D01*
X79432857Y-55437352D02*
X79509047Y-55413543D01*
X76274857Y-39397619D02*
X76312952Y-39469047D01*
X76312952Y-39469047D02*
X76351047Y-39492857D01*
X76351047Y-39492857D02*
X76427238Y-39516666D01*
X76427238Y-39516666D02*
X76541523Y-39516666D01*
X76541523Y-39516666D02*
X76617714Y-39492857D01*
X76617714Y-39492857D02*
X76655809Y-39469047D01*
X76655809Y-39469047D02*
X76693904Y-39421428D01*
X76693904Y-39421428D02*
X76693904Y-39230952D01*
X76693904Y-39230952D02*
X75893904Y-39230952D01*
X75893904Y-39230952D02*
X75893904Y-39397619D01*
X75893904Y-39397619D02*
X75932000Y-39445238D01*
X75932000Y-39445238D02*
X75970095Y-39469047D01*
X75970095Y-39469047D02*
X76046285Y-39492857D01*
X76046285Y-39492857D02*
X76122476Y-39492857D01*
X76122476Y-39492857D02*
X76198666Y-39469047D01*
X76198666Y-39469047D02*
X76236761Y-39445238D01*
X76236761Y-39445238D02*
X76274857Y-39397619D01*
X76274857Y-39397619D02*
X76274857Y-39230952D01*
X76160571Y-39945238D02*
X76693904Y-39945238D01*
X75855809Y-39826190D02*
X76427238Y-39707143D01*
X76427238Y-39707143D02*
X76427238Y-40016666D01*
X61995809Y-39188258D02*
X62033904Y-39259686D01*
X62033904Y-39259686D02*
X62033904Y-39378734D01*
X62033904Y-39378734D02*
X61995809Y-39426353D01*
X61995809Y-39426353D02*
X61957714Y-39450162D01*
X61957714Y-39450162D02*
X61881523Y-39473972D01*
X61881523Y-39473972D02*
X61805333Y-39473972D01*
X61805333Y-39473972D02*
X61729142Y-39450162D01*
X61729142Y-39450162D02*
X61691047Y-39426353D01*
X61691047Y-39426353D02*
X61652952Y-39378734D01*
X61652952Y-39378734D02*
X61614857Y-39283496D01*
X61614857Y-39283496D02*
X61576761Y-39235877D01*
X61576761Y-39235877D02*
X61538666Y-39212067D01*
X61538666Y-39212067D02*
X61462476Y-39188258D01*
X61462476Y-39188258D02*
X61386285Y-39188258D01*
X61386285Y-39188258D02*
X61310095Y-39212067D01*
X61310095Y-39212067D02*
X61272000Y-39235877D01*
X61272000Y-39235877D02*
X61233904Y-39283496D01*
X61233904Y-39283496D02*
X61233904Y-39402543D01*
X61233904Y-39402543D02*
X61272000Y-39473972D01*
X62033904Y-39688257D02*
X61233904Y-39688257D01*
X61233904Y-39688257D02*
X61233904Y-39807305D01*
X61233904Y-39807305D02*
X61272000Y-39878733D01*
X61272000Y-39878733D02*
X61348190Y-39926352D01*
X61348190Y-39926352D02*
X61424380Y-39950162D01*
X61424380Y-39950162D02*
X61576761Y-39973971D01*
X61576761Y-39973971D02*
X61691047Y-39973971D01*
X61691047Y-39973971D02*
X61843428Y-39950162D01*
X61843428Y-39950162D02*
X61919619Y-39926352D01*
X61919619Y-39926352D02*
X61995809Y-39878733D01*
X61995809Y-39878733D02*
X62033904Y-39807305D01*
X62033904Y-39807305D02*
X62033904Y-39688257D01*
X61805333Y-40164448D02*
X61805333Y-40402543D01*
X62033904Y-40116829D02*
X61233904Y-40283495D01*
X61233904Y-40283495D02*
X62033904Y-40450162D01*
X64535809Y-39200162D02*
X64573904Y-39271590D01*
X64573904Y-39271590D02*
X64573904Y-39390638D01*
X64573904Y-39390638D02*
X64535809Y-39438257D01*
X64535809Y-39438257D02*
X64497714Y-39462066D01*
X64497714Y-39462066D02*
X64421523Y-39485876D01*
X64421523Y-39485876D02*
X64345333Y-39485876D01*
X64345333Y-39485876D02*
X64269142Y-39462066D01*
X64269142Y-39462066D02*
X64231047Y-39438257D01*
X64231047Y-39438257D02*
X64192952Y-39390638D01*
X64192952Y-39390638D02*
X64154857Y-39295400D01*
X64154857Y-39295400D02*
X64116761Y-39247781D01*
X64116761Y-39247781D02*
X64078666Y-39223971D01*
X64078666Y-39223971D02*
X64002476Y-39200162D01*
X64002476Y-39200162D02*
X63926285Y-39200162D01*
X63926285Y-39200162D02*
X63850095Y-39223971D01*
X63850095Y-39223971D02*
X63812000Y-39247781D01*
X63812000Y-39247781D02*
X63773904Y-39295400D01*
X63773904Y-39295400D02*
X63773904Y-39414447D01*
X63773904Y-39414447D02*
X63812000Y-39485876D01*
X64497714Y-39985875D02*
X64535809Y-39962066D01*
X64535809Y-39962066D02*
X64573904Y-39890637D01*
X64573904Y-39890637D02*
X64573904Y-39843018D01*
X64573904Y-39843018D02*
X64535809Y-39771590D01*
X64535809Y-39771590D02*
X64459619Y-39723971D01*
X64459619Y-39723971D02*
X64383428Y-39700161D01*
X64383428Y-39700161D02*
X64231047Y-39676352D01*
X64231047Y-39676352D02*
X64116761Y-39676352D01*
X64116761Y-39676352D02*
X63964380Y-39700161D01*
X63964380Y-39700161D02*
X63888190Y-39723971D01*
X63888190Y-39723971D02*
X63812000Y-39771590D01*
X63812000Y-39771590D02*
X63773904Y-39843018D01*
X63773904Y-39843018D02*
X63773904Y-39890637D01*
X63773904Y-39890637D02*
X63812000Y-39962066D01*
X63812000Y-39962066D02*
X63850095Y-39985875D01*
X64573904Y-40438256D02*
X64573904Y-40200161D01*
X64573904Y-40200161D02*
X63773904Y-40200161D01*
X58693904Y-54305234D02*
X59493904Y-54471900D01*
X59493904Y-54471900D02*
X58693904Y-54638567D01*
X59417714Y-55090947D02*
X59455809Y-55067138D01*
X59455809Y-55067138D02*
X59493904Y-54995709D01*
X59493904Y-54995709D02*
X59493904Y-54948090D01*
X59493904Y-54948090D02*
X59455809Y-54876662D01*
X59455809Y-54876662D02*
X59379619Y-54829043D01*
X59379619Y-54829043D02*
X59303428Y-54805233D01*
X59303428Y-54805233D02*
X59151047Y-54781424D01*
X59151047Y-54781424D02*
X59036761Y-54781424D01*
X59036761Y-54781424D02*
X58884380Y-54805233D01*
X58884380Y-54805233D02*
X58808190Y-54829043D01*
X58808190Y-54829043D02*
X58732000Y-54876662D01*
X58732000Y-54876662D02*
X58693904Y-54948090D01*
X58693904Y-54948090D02*
X58693904Y-54995709D01*
X58693904Y-54995709D02*
X58732000Y-55067138D01*
X58732000Y-55067138D02*
X58770095Y-55090947D01*
X59417714Y-55590947D02*
X59455809Y-55567138D01*
X59455809Y-55567138D02*
X59493904Y-55495709D01*
X59493904Y-55495709D02*
X59493904Y-55448090D01*
X59493904Y-55448090D02*
X59455809Y-55376662D01*
X59455809Y-55376662D02*
X59379619Y-55329043D01*
X59379619Y-55329043D02*
X59303428Y-55305233D01*
X59303428Y-55305233D02*
X59151047Y-55281424D01*
X59151047Y-55281424D02*
X59036761Y-55281424D01*
X59036761Y-55281424D02*
X58884380Y-55305233D01*
X58884380Y-55305233D02*
X58808190Y-55329043D01*
X58808190Y-55329043D02*
X58732000Y-55376662D01*
X58732000Y-55376662D02*
X58693904Y-55448090D01*
X58693904Y-55448090D02*
X58693904Y-55495709D01*
X58693904Y-55495709D02*
X58732000Y-55567138D01*
X58732000Y-55567138D02*
X58770095Y-55590947D01*
X94963094Y-51337380D02*
X94963094Y-50337380D01*
X94963094Y-50337380D02*
X94724999Y-50337380D01*
X94724999Y-50337380D02*
X94582142Y-50385000D01*
X94582142Y-50385000D02*
X94486904Y-50480238D01*
X94486904Y-50480238D02*
X94439285Y-50575476D01*
X94439285Y-50575476D02*
X94391666Y-50765952D01*
X94391666Y-50765952D02*
X94391666Y-50908809D01*
X94391666Y-50908809D02*
X94439285Y-51099285D01*
X94439285Y-51099285D02*
X94486904Y-51194523D01*
X94486904Y-51194523D02*
X94582142Y-51289761D01*
X94582142Y-51289761D02*
X94724999Y-51337380D01*
X94724999Y-51337380D02*
X94963094Y-51337380D01*
X94010713Y-50432619D02*
X93963094Y-50385000D01*
X93963094Y-50385000D02*
X93867856Y-50337380D01*
X93867856Y-50337380D02*
X93629761Y-50337380D01*
X93629761Y-50337380D02*
X93534523Y-50385000D01*
X93534523Y-50385000D02*
X93486904Y-50432619D01*
X93486904Y-50432619D02*
X93439285Y-50527857D01*
X93439285Y-50527857D02*
X93439285Y-50623095D01*
X93439285Y-50623095D02*
X93486904Y-50765952D01*
X93486904Y-50765952D02*
X94058332Y-51337380D01*
X94058332Y-51337380D02*
X93439285Y-51337380D01*
D12*
X77533382Y-49519711D02*
X77390525Y-49567330D01*
X77390525Y-49567330D02*
X77152430Y-49567330D01*
X77152430Y-49567330D02*
X77057192Y-49519711D01*
X77057192Y-49519711D02*
X77009573Y-49472092D01*
X77009573Y-49472092D02*
X76961954Y-49376854D01*
X76961954Y-49376854D02*
X76961954Y-49281616D01*
X76961954Y-49281616D02*
X77009573Y-49186378D01*
X77009573Y-49186378D02*
X77057192Y-49138759D01*
X77057192Y-49138759D02*
X77152430Y-49091140D01*
X77152430Y-49091140D02*
X77342906Y-49043521D01*
X77342906Y-49043521D02*
X77438144Y-48995902D01*
X77438144Y-48995902D02*
X77485763Y-48948283D01*
X77485763Y-48948283D02*
X77533382Y-48853045D01*
X77533382Y-48853045D02*
X77533382Y-48757807D01*
X77533382Y-48757807D02*
X77485763Y-48662569D01*
X77485763Y-48662569D02*
X77438144Y-48614950D01*
X77438144Y-48614950D02*
X77342906Y-48567330D01*
X77342906Y-48567330D02*
X77104811Y-48567330D01*
X77104811Y-48567330D02*
X76961954Y-48614950D01*
X76628620Y-48567330D02*
X76390525Y-49567330D01*
X76390525Y-49567330D02*
X76200049Y-48853045D01*
X76200049Y-48853045D02*
X76009573Y-49567330D01*
X76009573Y-49567330D02*
X75771478Y-48567330D01*
X75438144Y-48662569D02*
X75390525Y-48614950D01*
X75390525Y-48614950D02*
X75295287Y-48567330D01*
X75295287Y-48567330D02*
X75057192Y-48567330D01*
X75057192Y-48567330D02*
X74961954Y-48614950D01*
X74961954Y-48614950D02*
X74914335Y-48662569D01*
X74914335Y-48662569D02*
X74866716Y-48757807D01*
X74866716Y-48757807D02*
X74866716Y-48853045D01*
X74866716Y-48853045D02*
X74914335Y-48995902D01*
X74914335Y-48995902D02*
X75485763Y-49567330D01*
X75485763Y-49567330D02*
X74866716Y-49567330D01*
X92773332Y-59850961D02*
X92630475Y-59898580D01*
X92630475Y-59898580D02*
X92392380Y-59898580D01*
X92392380Y-59898580D02*
X92297142Y-59850961D01*
X92297142Y-59850961D02*
X92249523Y-59803342D01*
X92249523Y-59803342D02*
X92201904Y-59708104D01*
X92201904Y-59708104D02*
X92201904Y-59612866D01*
X92201904Y-59612866D02*
X92249523Y-59517628D01*
X92249523Y-59517628D02*
X92297142Y-59470009D01*
X92297142Y-59470009D02*
X92392380Y-59422390D01*
X92392380Y-59422390D02*
X92582856Y-59374771D01*
X92582856Y-59374771D02*
X92678094Y-59327152D01*
X92678094Y-59327152D02*
X92725713Y-59279533D01*
X92725713Y-59279533D02*
X92773332Y-59184295D01*
X92773332Y-59184295D02*
X92773332Y-59089057D01*
X92773332Y-59089057D02*
X92725713Y-58993819D01*
X92725713Y-58993819D02*
X92678094Y-58946200D01*
X92678094Y-58946200D02*
X92582856Y-58898580D01*
X92582856Y-58898580D02*
X92344761Y-58898580D01*
X92344761Y-58898580D02*
X92201904Y-58946200D01*
X91868570Y-58898580D02*
X91630475Y-59898580D01*
X91630475Y-59898580D02*
X91439999Y-59184295D01*
X91439999Y-59184295D02*
X91249523Y-59898580D01*
X91249523Y-59898580D02*
X91011428Y-58898580D01*
X90154285Y-58898580D02*
X90630475Y-58898580D01*
X90630475Y-58898580D02*
X90678094Y-59374771D01*
X90678094Y-59374771D02*
X90630475Y-59327152D01*
X90630475Y-59327152D02*
X90535237Y-59279533D01*
X90535237Y-59279533D02*
X90297142Y-59279533D01*
X90297142Y-59279533D02*
X90201904Y-59327152D01*
X90201904Y-59327152D02*
X90154285Y-59374771D01*
X90154285Y-59374771D02*
X90106666Y-59470009D01*
X90106666Y-59470009D02*
X90106666Y-59708104D01*
X90106666Y-59708104D02*
X90154285Y-59803342D01*
X90154285Y-59803342D02*
X90201904Y-59850961D01*
X90201904Y-59850961D02*
X90297142Y-59898580D01*
X90297142Y-59898580D02*
X90535237Y-59898580D01*
X90535237Y-59898580D02*
X90630475Y-59850961D01*
X90630475Y-59850961D02*
X90678094Y-59803342D01*
X61817132Y-59850961D02*
X61674275Y-59898580D01*
X61674275Y-59898580D02*
X61436180Y-59898580D01*
X61436180Y-59898580D02*
X61340942Y-59850961D01*
X61340942Y-59850961D02*
X61293323Y-59803342D01*
X61293323Y-59803342D02*
X61245704Y-59708104D01*
X61245704Y-59708104D02*
X61245704Y-59612866D01*
X61245704Y-59612866D02*
X61293323Y-59517628D01*
X61293323Y-59517628D02*
X61340942Y-59470009D01*
X61340942Y-59470009D02*
X61436180Y-59422390D01*
X61436180Y-59422390D02*
X61626656Y-59374771D01*
X61626656Y-59374771D02*
X61721894Y-59327152D01*
X61721894Y-59327152D02*
X61769513Y-59279533D01*
X61769513Y-59279533D02*
X61817132Y-59184295D01*
X61817132Y-59184295D02*
X61817132Y-59089057D01*
X61817132Y-59089057D02*
X61769513Y-58993819D01*
X61769513Y-58993819D02*
X61721894Y-58946200D01*
X61721894Y-58946200D02*
X61626656Y-58898580D01*
X61626656Y-58898580D02*
X61388561Y-58898580D01*
X61388561Y-58898580D02*
X61245704Y-58946200D01*
X60912370Y-58898580D02*
X60674275Y-59898580D01*
X60674275Y-59898580D02*
X60483799Y-59184295D01*
X60483799Y-59184295D02*
X60293323Y-59898580D01*
X60293323Y-59898580D02*
X60055228Y-58898580D01*
X59245704Y-59231914D02*
X59245704Y-59898580D01*
X59483799Y-58850961D02*
X59721894Y-59565247D01*
X59721894Y-59565247D02*
X59102847Y-59565247D01*
D11*
X77163094Y-59937380D02*
X77163094Y-58937380D01*
X77163094Y-58937380D02*
X76924999Y-58937380D01*
X76924999Y-58937380D02*
X76782142Y-58985000D01*
X76782142Y-58985000D02*
X76686904Y-59080238D01*
X76686904Y-59080238D02*
X76639285Y-59175476D01*
X76639285Y-59175476D02*
X76591666Y-59365952D01*
X76591666Y-59365952D02*
X76591666Y-59508809D01*
X76591666Y-59508809D02*
X76639285Y-59699285D01*
X76639285Y-59699285D02*
X76686904Y-59794523D01*
X76686904Y-59794523D02*
X76782142Y-59889761D01*
X76782142Y-59889761D02*
X76924999Y-59937380D01*
X76924999Y-59937380D02*
X77163094Y-59937380D01*
X75734523Y-59270714D02*
X75734523Y-59937380D01*
X75972618Y-58889761D02*
X76210713Y-59604047D01*
X76210713Y-59604047D02*
X75591666Y-59604047D01*
X122788094Y-70174880D02*
X122788094Y-69174880D01*
X122788094Y-69174880D02*
X122549999Y-69174880D01*
X122549999Y-69174880D02*
X122407142Y-69222500D01*
X122407142Y-69222500D02*
X122311904Y-69317738D01*
X122311904Y-69317738D02*
X122264285Y-69412976D01*
X122264285Y-69412976D02*
X122216666Y-69603452D01*
X122216666Y-69603452D02*
X122216666Y-69746309D01*
X122216666Y-69746309D02*
X122264285Y-69936785D01*
X122264285Y-69936785D02*
X122311904Y-70032023D01*
X122311904Y-70032023D02*
X122407142Y-70127261D01*
X122407142Y-70127261D02*
X122549999Y-70174880D01*
X122549999Y-70174880D02*
X122788094Y-70174880D01*
X121359523Y-69174880D02*
X121549999Y-69174880D01*
X121549999Y-69174880D02*
X121645237Y-69222500D01*
X121645237Y-69222500D02*
X121692856Y-69270119D01*
X121692856Y-69270119D02*
X121788094Y-69412976D01*
X121788094Y-69412976D02*
X121835713Y-69603452D01*
X121835713Y-69603452D02*
X121835713Y-69984404D01*
X121835713Y-69984404D02*
X121788094Y-70079642D01*
X121788094Y-70079642D02*
X121740475Y-70127261D01*
X121740475Y-70127261D02*
X121645237Y-70174880D01*
X121645237Y-70174880D02*
X121454761Y-70174880D01*
X121454761Y-70174880D02*
X121359523Y-70127261D01*
X121359523Y-70127261D02*
X121311904Y-70079642D01*
X121311904Y-70079642D02*
X121264285Y-69984404D01*
X121264285Y-69984404D02*
X121264285Y-69746309D01*
X121264285Y-69746309D02*
X121311904Y-69651071D01*
X121311904Y-69651071D02*
X121359523Y-69603452D01*
X121359523Y-69603452D02*
X121454761Y-69555833D01*
X121454761Y-69555833D02*
X121645237Y-69555833D01*
X121645237Y-69555833D02*
X121740475Y-69603452D01*
X121740475Y-69603452D02*
X121788094Y-69651071D01*
X121788094Y-69651071D02*
X121835713Y-69746309D01*
X77148094Y-65337380D02*
X77148094Y-64337380D01*
X77148094Y-64337380D02*
X76909999Y-64337380D01*
X76909999Y-64337380D02*
X76767142Y-64385000D01*
X76767142Y-64385000D02*
X76671904Y-64480238D01*
X76671904Y-64480238D02*
X76624285Y-64575476D01*
X76624285Y-64575476D02*
X76576666Y-64765952D01*
X76576666Y-64765952D02*
X76576666Y-64908809D01*
X76576666Y-64908809D02*
X76624285Y-65099285D01*
X76624285Y-65099285D02*
X76671904Y-65194523D01*
X76671904Y-65194523D02*
X76767142Y-65289761D01*
X76767142Y-65289761D02*
X76909999Y-65337380D01*
X76909999Y-65337380D02*
X77148094Y-65337380D01*
X75671904Y-64337380D02*
X76148094Y-64337380D01*
X76148094Y-64337380D02*
X76195713Y-64813571D01*
X76195713Y-64813571D02*
X76148094Y-64765952D01*
X76148094Y-64765952D02*
X76052856Y-64718333D01*
X76052856Y-64718333D02*
X75814761Y-64718333D01*
X75814761Y-64718333D02*
X75719523Y-64765952D01*
X75719523Y-64765952D02*
X75671904Y-64813571D01*
X75671904Y-64813571D02*
X75624285Y-64908809D01*
X75624285Y-64908809D02*
X75624285Y-65146904D01*
X75624285Y-65146904D02*
X75671904Y-65242142D01*
X75671904Y-65242142D02*
X75719523Y-65289761D01*
X75719523Y-65289761D02*
X75814761Y-65337380D01*
X75814761Y-65337380D02*
X76052856Y-65337380D01*
X76052856Y-65337380D02*
X76148094Y-65289761D01*
X76148094Y-65289761D02*
X76195713Y-65242142D01*
X84537380Y-44436905D02*
X83537380Y-44436905D01*
X83537380Y-44436905D02*
X83537380Y-44675000D01*
X83537380Y-44675000D02*
X83585000Y-44817857D01*
X83585000Y-44817857D02*
X83680238Y-44913095D01*
X83680238Y-44913095D02*
X83775476Y-44960714D01*
X83775476Y-44960714D02*
X83965952Y-45008333D01*
X83965952Y-45008333D02*
X84108809Y-45008333D01*
X84108809Y-45008333D02*
X84299285Y-44960714D01*
X84299285Y-44960714D02*
X84394523Y-44913095D01*
X84394523Y-44913095D02*
X84489761Y-44817857D01*
X84489761Y-44817857D02*
X84537380Y-44675000D01*
X84537380Y-44675000D02*
X84537380Y-44436905D01*
X84537380Y-45960714D02*
X84537380Y-45389286D01*
X84537380Y-45675000D02*
X83537380Y-45675000D01*
X83537380Y-45675000D02*
X83680238Y-45579762D01*
X83680238Y-45579762D02*
X83775476Y-45484524D01*
X83775476Y-45484524D02*
X83823095Y-45389286D01*
D12*
X58533382Y-49919711D02*
X58390525Y-49967330D01*
X58390525Y-49967330D02*
X58152430Y-49967330D01*
X58152430Y-49967330D02*
X58057192Y-49919711D01*
X58057192Y-49919711D02*
X58009573Y-49872092D01*
X58009573Y-49872092D02*
X57961954Y-49776854D01*
X57961954Y-49776854D02*
X57961954Y-49681616D01*
X57961954Y-49681616D02*
X58009573Y-49586378D01*
X58009573Y-49586378D02*
X58057192Y-49538759D01*
X58057192Y-49538759D02*
X58152430Y-49491140D01*
X58152430Y-49491140D02*
X58342906Y-49443521D01*
X58342906Y-49443521D02*
X58438144Y-49395902D01*
X58438144Y-49395902D02*
X58485763Y-49348283D01*
X58485763Y-49348283D02*
X58533382Y-49253045D01*
X58533382Y-49253045D02*
X58533382Y-49157807D01*
X58533382Y-49157807D02*
X58485763Y-49062569D01*
X58485763Y-49062569D02*
X58438144Y-49014950D01*
X58438144Y-49014950D02*
X58342906Y-48967330D01*
X58342906Y-48967330D02*
X58104811Y-48967330D01*
X58104811Y-48967330D02*
X57961954Y-49014950D01*
X57628620Y-48967330D02*
X57390525Y-49967330D01*
X57390525Y-49967330D02*
X57200049Y-49253045D01*
X57200049Y-49253045D02*
X57009573Y-49967330D01*
X57009573Y-49967330D02*
X56771478Y-48967330D01*
X55866716Y-49967330D02*
X56438144Y-49967330D01*
X56152430Y-49967330D02*
X56152430Y-48967330D01*
X56152430Y-48967330D02*
X56247668Y-49110188D01*
X56247668Y-49110188D02*
X56342906Y-49205426D01*
X56342906Y-49205426D02*
X56438144Y-49253045D01*
X95163332Y-40799761D02*
X95020475Y-40847380D01*
X95020475Y-40847380D02*
X94782380Y-40847380D01*
X94782380Y-40847380D02*
X94687142Y-40799761D01*
X94687142Y-40799761D02*
X94639523Y-40752142D01*
X94639523Y-40752142D02*
X94591904Y-40656904D01*
X94591904Y-40656904D02*
X94591904Y-40561666D01*
X94591904Y-40561666D02*
X94639523Y-40466428D01*
X94639523Y-40466428D02*
X94687142Y-40418809D01*
X94687142Y-40418809D02*
X94782380Y-40371190D01*
X94782380Y-40371190D02*
X94972856Y-40323571D01*
X94972856Y-40323571D02*
X95068094Y-40275952D01*
X95068094Y-40275952D02*
X95115713Y-40228333D01*
X95115713Y-40228333D02*
X95163332Y-40133095D01*
X95163332Y-40133095D02*
X95163332Y-40037857D01*
X95163332Y-40037857D02*
X95115713Y-39942619D01*
X95115713Y-39942619D02*
X95068094Y-39895000D01*
X95068094Y-39895000D02*
X94972856Y-39847380D01*
X94972856Y-39847380D02*
X94734761Y-39847380D01*
X94734761Y-39847380D02*
X94591904Y-39895000D01*
X94258570Y-39847380D02*
X94020475Y-40847380D01*
X94020475Y-40847380D02*
X93829999Y-40133095D01*
X93829999Y-40133095D02*
X93639523Y-40847380D01*
X93639523Y-40847380D02*
X93401428Y-39847380D01*
X93115713Y-39847380D02*
X92496666Y-39847380D01*
X92496666Y-39847380D02*
X92829999Y-40228333D01*
X92829999Y-40228333D02*
X92687142Y-40228333D01*
X92687142Y-40228333D02*
X92591904Y-40275952D01*
X92591904Y-40275952D02*
X92544285Y-40323571D01*
X92544285Y-40323571D02*
X92496666Y-40418809D01*
X92496666Y-40418809D02*
X92496666Y-40656904D01*
X92496666Y-40656904D02*
X92544285Y-40752142D01*
X92544285Y-40752142D02*
X92591904Y-40799761D01*
X92591904Y-40799761D02*
X92687142Y-40847380D01*
X92687142Y-40847380D02*
X92972856Y-40847380D01*
X92972856Y-40847380D02*
X93068094Y-40799761D01*
X93068094Y-40799761D02*
X93115713Y-40752142D01*
X103725000Y-51850000D02*
X103725000Y-53350000D01*
X103725000Y-53350000D02*
X109125000Y-53350000D01*
X105925000Y-52100000D02*
X105925000Y-53100000D01*
X106025000Y-52600000D02*
X106925000Y-52100000D01*
X106925000Y-52100000D02*
X106925000Y-53100000D01*
X106925000Y-53100000D02*
X106025000Y-52600000D01*
X109125000Y-51850000D02*
X103725000Y-51850000D01*
X109125000Y-53350000D02*
X109125000Y-51850000D01*
X105406300Y-46731200D02*
X105406300Y-40731200D01*
X105656300Y-46731200D02*
X105406300Y-46731200D01*
X108906300Y-46731200D02*
X108656300Y-46731200D01*
X105406300Y-40731200D02*
X105656300Y-40731200D01*
X108656300Y-40731200D02*
X108906300Y-40731200D01*
X108906300Y-40731200D02*
X108906300Y-46731200D01*
X91525000Y-51850000D02*
X91525000Y-53350000D01*
X91525000Y-53350000D02*
X96925000Y-53350000D01*
X93725000Y-52100000D02*
X93725000Y-53100000D01*
X93825000Y-52600000D02*
X94725000Y-52100000D01*
X94725000Y-52100000D02*
X94725000Y-53100000D01*
X94725000Y-53100000D02*
X93825000Y-52600000D01*
X96925000Y-51850000D02*
X91525000Y-51850000D01*
X96925000Y-53350000D02*
X96925000Y-51850000D01*
X73725000Y-60450000D02*
X73725000Y-61950000D01*
X73725000Y-61950000D02*
X79125000Y-61950000D01*
X75925000Y-60700000D02*
X75925000Y-61700000D01*
X76025000Y-61200000D02*
X76925000Y-60700000D01*
X76925000Y-60700000D02*
X76925000Y-61700000D01*
X76925000Y-61700000D02*
X76025000Y-61200000D01*
X79125000Y-60450000D02*
X73725000Y-60450000D01*
X79125000Y-61950000D02*
X79125000Y-60450000D01*
X119350000Y-70687500D02*
X119350000Y-72187500D01*
X119350000Y-72187500D02*
X124750000Y-72187500D01*
X121550000Y-70937500D02*
X121550000Y-71937500D01*
X121650000Y-71437500D02*
X122550000Y-70937500D01*
X122550000Y-70937500D02*
X122550000Y-71937500D01*
X122550000Y-71937500D02*
X121650000Y-71437500D01*
X124750000Y-70687500D02*
X119350000Y-70687500D01*
X124750000Y-72187500D02*
X124750000Y-70687500D01*
X73710000Y-65850000D02*
X73710000Y-67350000D01*
X73710000Y-67350000D02*
X79110000Y-67350000D01*
X75910000Y-66100000D02*
X75910000Y-67100000D01*
X76010000Y-66600000D02*
X76910000Y-66100000D01*
X76910000Y-66100000D02*
X76910000Y-67100000D01*
X76910000Y-67100000D02*
X76010000Y-66600000D01*
X79110000Y-65850000D02*
X73710000Y-65850000D01*
X79110000Y-67350000D02*
X79110000Y-65850000D01*
X85050000Y-47875000D02*
X86550000Y-47875000D01*
X86550000Y-47875000D02*
X86550000Y-42475000D01*
X85300000Y-45675000D02*
X86300000Y-45675000D01*
X85800000Y-45575000D02*
X85300000Y-44675000D01*
X85300000Y-44675000D02*
X86300000Y-44675000D01*
X86300000Y-44675000D02*
X85800000Y-45575000D01*
X85050000Y-42475000D02*
X85050000Y-47875000D01*
X86550000Y-42475000D02*
X85050000Y-42475000D01*
G36*
X106085317Y-71638464D02*
G01*
X106072624Y-71653421D01*
X106028479Y-71711970D01*
X105995787Y-71764417D01*
X105994550Y-71766766D01*
X105957636Y-71810517D01*
X105918589Y-71822915D01*
X105887048Y-71808260D01*
X105872654Y-71770855D01*
X105885046Y-71715001D01*
X105886207Y-71712565D01*
X105927348Y-71665305D01*
X105997885Y-71621510D01*
X106088694Y-71586917D01*
X106144671Y-71570863D01*
X106085317Y-71638464D01*
G37*
G36*
X106102277Y-71259577D02*
G01*
X106096114Y-71284858D01*
X106058425Y-71332579D01*
X106034373Y-71360165D01*
X105993072Y-71412047D01*
X105966910Y-71450988D01*
X105959030Y-71463255D01*
X105924859Y-71485416D01*
X105891489Y-71475275D01*
X105872238Y-71435073D01*
X105872041Y-71433585D01*
X105883698Y-71377934D01*
X105928328Y-71325379D01*
X106000180Y-71282765D01*
X106018650Y-71275163D01*
X106076570Y-71256443D01*
X106102277Y-71259577D01*
G37*
G36*
X105586256Y-71577130D02*
G01*
X105571034Y-71599579D01*
X105530984Y-71645086D01*
X105502031Y-71679142D01*
X105462008Y-71733486D01*
X105438689Y-71774944D01*
X105427305Y-71795214D01*
X105392680Y-71819660D01*
X105354873Y-71819420D01*
X105328434Y-71792215D01*
X105323761Y-71771747D01*
X105337312Y-71718516D01*
X105383488Y-71665782D01*
X105457930Y-71617641D01*
X105556279Y-71578187D01*
X105578667Y-71572406D01*
X105586256Y-71577130D01*
G37*
G36*
X105580314Y-71259629D02*
G01*
X105574277Y-71274160D01*
X105539352Y-71305825D01*
X105534094Y-71310372D01*
X105482307Y-71364458D01*
X105437946Y-71424061D01*
X105432665Y-71432294D01*
X105395776Y-71474406D01*
X105363593Y-71486537D01*
X105344999Y-71477412D01*
X105327283Y-71442353D01*
X105329975Y-71395340D01*
X105354072Y-71350622D01*
X105368078Y-71337180D01*
X105427647Y-71298163D01*
X105498228Y-71268155D01*
X105560193Y-71256154D01*
X105580314Y-71259629D01*
G37*
G36*
X104496651Y-66948498D02*
G01*
X104564821Y-67094997D01*
X104622355Y-67254542D01*
X104649805Y-67389206D01*
X104647169Y-67498974D01*
X104614446Y-67583835D01*
X104551634Y-67643776D01*
X104507090Y-67664692D01*
X104412981Y-67679663D01*
X104317823Y-67661916D01*
X104304444Y-67655651D01*
X104255311Y-67609561D01*
X104221034Y-67540004D01*
X104208154Y-67459079D01*
X104211945Y-67415561D01*
X104228758Y-67330910D01*
X104255996Y-67229346D01*
X104290342Y-67121844D01*
X104328481Y-67019381D01*
X104367096Y-66932934D01*
X104427990Y-66812305D01*
X104496651Y-66948498D01*
G37*
G36*
X104486462Y-71327705D02*
G01*
X104504840Y-71353256D01*
X104533779Y-71403109D01*
X104567648Y-71467646D01*
X104572576Y-71477523D01*
X104646078Y-71641098D01*
X104701242Y-71796634D01*
X104737143Y-71939415D01*
X104752854Y-72064725D01*
X104747451Y-72167850D01*
X104720009Y-72244074D01*
X104718498Y-72246406D01*
X104672514Y-72297067D01*
X104616088Y-72336437D01*
X104588504Y-72347950D01*
X104498758Y-72366570D01*
X104405575Y-72364489D01*
X104327049Y-72341399D01*
X104318846Y-72336598D01*
X104273874Y-72295167D01*
X104237715Y-72240619D01*
X104223270Y-72199630D01*
X104212713Y-72098376D01*
X104224744Y-71972335D01*
X104258549Y-71825597D01*
X104313309Y-71662251D01*
X104388210Y-71486387D01*
X104410279Y-71441025D01*
X104443758Y-71379015D01*
X104470142Y-71338514D01*
X104485107Y-71326648D01*
X104486462Y-71327705D01*
G37*
G36*
X106342508Y-68874978D02*
G01*
X106372083Y-68921703D01*
X106410265Y-68991677D01*
X106453703Y-69078002D01*
X106499048Y-69173779D01*
X106542951Y-69272110D01*
X106582062Y-69366099D01*
X106613030Y-69448846D01*
X106630277Y-69502707D01*
X106663053Y-69636519D01*
X106682456Y-69767857D01*
X106687921Y-69888386D01*
X106678882Y-69989771D01*
X106654773Y-70063679D01*
X106619518Y-70116297D01*
X106546379Y-70181824D01*
X106444178Y-70231656D01*
X106412365Y-70241252D01*
X106310994Y-70251877D01*
X106206057Y-70239716D01*
X106116153Y-70206211D01*
X106067942Y-70166146D01*
X106016367Y-70092235D01*
X105980233Y-70004202D01*
X105966616Y-69915787D01*
X105971215Y-69841752D01*
X105987112Y-69730860D01*
X106011835Y-69607240D01*
X106042744Y-69483845D01*
X106077195Y-69373631D01*
X106084531Y-69353336D01*
X106121312Y-69258514D01*
X106162611Y-69160869D01*
X106205273Y-69066923D01*
X106246139Y-68983201D01*
X106282054Y-68916226D01*
X106309861Y-68872522D01*
X106326403Y-68858612D01*
X106342508Y-68874978D01*
G37*
G36*
X105380462Y-68950615D02*
G01*
X105380462Y-69163862D01*
X105380519Y-69195132D01*
X105382628Y-69302307D01*
X105384490Y-69396973D01*
X105395555Y-69565911D01*
X105414898Y-69706989D01*
X105443703Y-69825250D01*
X105483153Y-69925735D01*
X105534432Y-70013488D01*
X105598725Y-70093550D01*
X105598998Y-70093848D01*
X105648926Y-70153057D01*
X105670346Y-70188418D01*
X105665666Y-70199974D01*
X105637293Y-70187763D01*
X105587635Y-70151828D01*
X105519098Y-70092208D01*
X105424972Y-69989684D01*
X105341757Y-69856554D01*
X105293202Y-69717500D01*
X105279665Y-69654000D01*
X104977687Y-69654000D01*
X104675710Y-69654000D01*
X104681278Y-69854269D01*
X104686846Y-70054538D01*
X104823616Y-70052895D01*
X104960385Y-70051251D01*
X104868201Y-70089271D01*
X104836130Y-70104420D01*
X104788228Y-70135752D01*
X104764307Y-70164183D01*
X104752571Y-70182654D01*
X104712413Y-70199726D01*
X104658438Y-70195897D01*
X104603271Y-70170661D01*
X104598688Y-70167411D01*
X104587181Y-70157528D01*
X104578206Y-70143625D01*
X104571448Y-70121320D01*
X104566592Y-70086232D01*
X104563325Y-70033978D01*
X104561331Y-69960175D01*
X104560297Y-69860442D01*
X104559907Y-69730396D01*
X104559864Y-69614923D01*
X104677077Y-69614923D01*
X104970154Y-69614923D01*
X105263231Y-69614923D01*
X105263231Y-69458615D01*
X105263231Y-69302307D01*
X104970154Y-69302307D01*
X104677077Y-69302307D01*
X104677077Y-69458615D01*
X104677077Y-69614923D01*
X104559864Y-69614923D01*
X104559846Y-69565656D01*
X104559845Y-69534233D01*
X104559722Y-69375769D01*
X104559240Y-69263230D01*
X104677077Y-69263230D01*
X104970154Y-69263230D01*
X105263231Y-69263230D01*
X105263231Y-69106923D01*
X105263231Y-68950615D01*
X104970154Y-68950615D01*
X104677077Y-68950615D01*
X104677077Y-69106923D01*
X104677077Y-69263230D01*
X104559240Y-69263230D01*
X104559189Y-69251310D01*
X104557951Y-69156536D01*
X104555715Y-69087126D01*
X104552188Y-69038761D01*
X104547074Y-69007121D01*
X104540081Y-68987887D01*
X104530914Y-68976739D01*
X104519280Y-68969356D01*
X104502419Y-68959467D01*
X104493990Y-68945533D01*
X104509777Y-68925530D01*
X104553472Y-68890999D01*
X104589844Y-68864015D01*
X104619939Y-68847311D01*
X104639625Y-68850949D01*
X104660671Y-68872946D01*
X104673484Y-68885820D01*
X104694457Y-68897360D01*
X104727428Y-68904846D01*
X104779166Y-68909134D01*
X104856439Y-68911080D01*
X104966015Y-68911538D01*
X104974529Y-68911533D01*
X105101398Y-68909814D01*
X105195587Y-68904654D01*
X105263037Y-68895543D01*
X105309691Y-68881968D01*
X105380462Y-68852398D01*
X105380462Y-68950615D01*
G37*
G36*
X105193120Y-70773294D02*
G01*
X105235391Y-70826307D01*
X105825696Y-70826307D01*
X105954419Y-70826601D01*
X106117170Y-70828091D01*
X106245986Y-70830803D01*
X106339584Y-70834695D01*
X106396683Y-70839723D01*
X106416000Y-70845846D01*
X106414222Y-70848356D01*
X106383942Y-70855538D01*
X106318453Y-70860889D01*
X106220696Y-70864231D01*
X106093616Y-70865384D01*
X105771231Y-70865384D01*
X105771231Y-70982615D01*
X105771231Y-71099846D01*
X105991039Y-71099153D01*
X106037158Y-71098727D01*
X106143185Y-71094414D01*
X106215982Y-71085165D01*
X106259693Y-71070538D01*
X106297054Y-71051268D01*
X106323193Y-71041923D01*
X106326185Y-71053163D01*
X106329543Y-71097747D01*
X106332347Y-71170616D01*
X106334578Y-71265705D01*
X106336221Y-71376952D01*
X106337258Y-71498294D01*
X106337674Y-71623667D01*
X106337450Y-71747008D01*
X106336572Y-71862253D01*
X106335020Y-71963339D01*
X106332781Y-72044203D01*
X106329835Y-72098782D01*
X106326167Y-72121012D01*
X106309215Y-72125849D01*
X106269314Y-72116061D01*
X106225500Y-72090882D01*
X106217752Y-72075833D01*
X106211278Y-72038820D01*
X106206550Y-71976786D01*
X106203392Y-71886220D01*
X106201626Y-71763613D01*
X106201077Y-71605453D01*
X106201077Y-71138923D01*
X105986154Y-71138923D01*
X105771231Y-71138923D01*
X105771231Y-71618913D01*
X105771231Y-72098903D01*
X105717500Y-72092721D01*
X105663770Y-72086538D01*
X105658538Y-71612730D01*
X105653306Y-71138923D01*
X105438730Y-71138923D01*
X105224154Y-71138923D01*
X105224154Y-71559000D01*
X105224154Y-71979077D01*
X105346270Y-71980839D01*
X105409031Y-71982308D01*
X105437869Y-71985279D01*
X105435242Y-71991042D01*
X105404987Y-72000909D01*
X105351375Y-72027709D01*
X105309932Y-72067532D01*
X105304753Y-72074858D01*
X105257429Y-72109920D01*
X105201259Y-72110740D01*
X105146000Y-72076769D01*
X105137141Y-72067074D01*
X105126563Y-72049920D01*
X105118783Y-72024927D01*
X105113375Y-71986890D01*
X105109912Y-71930602D01*
X105107967Y-71850856D01*
X105107113Y-71742446D01*
X105106923Y-71600167D01*
X105106890Y-71536050D01*
X105106414Y-71408520D01*
X105105084Y-71313175D01*
X105102532Y-71245161D01*
X105098389Y-71199620D01*
X105092286Y-71171697D01*
X105083856Y-71156535D01*
X105072731Y-71149278D01*
X105054484Y-71137578D01*
X105061462Y-71120130D01*
X105097154Y-71088669D01*
X105153992Y-71050846D01*
X105193647Y-71044543D01*
X105217089Y-71070538D01*
X105220721Y-71076823D01*
X105239714Y-71088153D01*
X105278513Y-71095208D01*
X105343527Y-71098826D01*
X105441168Y-71099846D01*
X105654000Y-71099846D01*
X105654000Y-70982615D01*
X105654000Y-70865384D01*
X105331616Y-70865384D01*
X105270119Y-70865106D01*
X105163240Y-70863004D01*
X105080906Y-70859074D01*
X105027957Y-70853593D01*
X105009231Y-70846840D01*
X105012263Y-70839169D01*
X105037524Y-70810456D01*
X105080039Y-70774288D01*
X105150848Y-70720280D01*
X105193120Y-70773294D01*
G37*
G36*
X105969884Y-68154423D02*
G01*
X105973245Y-68169077D01*
X106194623Y-68169077D01*
X106270277Y-68169494D01*
X106343212Y-68171797D01*
X106387730Y-68176839D01*
X106409953Y-68185432D01*
X106416000Y-68198384D01*
X106415908Y-68199618D01*
X106410705Y-68206360D01*
X106395219Y-68211950D01*
X106366251Y-68216491D01*
X106320601Y-68220089D01*
X106255071Y-68222847D01*
X106166460Y-68224869D01*
X106051570Y-68226261D01*
X105907201Y-68227125D01*
X105730155Y-68227568D01*
X105517231Y-68227692D01*
X105378603Y-68227632D01*
X105186368Y-68227248D01*
X105028229Y-68226427D01*
X104901122Y-68225077D01*
X104801980Y-68223108D01*
X104727739Y-68220426D01*
X104675332Y-68216940D01*
X104641694Y-68212558D01*
X104623759Y-68207188D01*
X104618462Y-68200738D01*
X104627735Y-68181302D01*
X104660647Y-68143425D01*
X104709161Y-68099463D01*
X104799860Y-68025141D01*
X104857595Y-68097109D01*
X104876750Y-68119573D01*
X104923571Y-68157864D01*
X104972049Y-68169077D01*
X105028770Y-68169077D01*
X105185077Y-68169077D01*
X105497693Y-68169077D01*
X105567600Y-68168704D01*
X105663827Y-68166816D01*
X105740500Y-68163602D01*
X105791112Y-68159369D01*
X105809157Y-68154423D01*
X105804750Y-68132627D01*
X105792749Y-68078772D01*
X105774588Y-67999226D01*
X105751696Y-67900244D01*
X105725501Y-67788077D01*
X105642996Y-67436384D01*
X105414037Y-67430880D01*
X105185077Y-67425375D01*
X105185077Y-67797226D01*
X105185077Y-68169077D01*
X105028770Y-68169077D01*
X105028770Y-67808932D01*
X105028762Y-67765025D01*
X105028464Y-67649484D01*
X105027259Y-67565840D01*
X105024518Y-67508638D01*
X105019609Y-67472418D01*
X105011902Y-67451723D01*
X105000766Y-67441095D01*
X104985571Y-67435076D01*
X104965779Y-67427577D01*
X104958909Y-67415735D01*
X104975815Y-67394364D01*
X105019763Y-67355896D01*
X105074946Y-67312421D01*
X105113329Y-67294084D01*
X105143534Y-67300148D01*
X105175308Y-67328923D01*
X105193040Y-67344903D01*
X105219562Y-67356948D01*
X105260841Y-67363950D01*
X105324976Y-67367203D01*
X105420069Y-67368000D01*
X105629466Y-67368000D01*
X105583005Y-67148192D01*
X105566296Y-67069358D01*
X105548445Y-66985639D01*
X105534492Y-66920761D01*
X105526515Y-66884423D01*
X105523707Y-66873544D01*
X105516887Y-66861341D01*
X105502104Y-66852582D01*
X105474172Y-66846696D01*
X105427905Y-66843112D01*
X105358119Y-66841259D01*
X105259626Y-66840565D01*
X105127243Y-66840461D01*
X105106163Y-66840437D01*
X104988722Y-66839361D01*
X104886069Y-66836880D01*
X104804277Y-66833251D01*
X104749418Y-66828730D01*
X104727561Y-66823573D01*
X104727561Y-66823572D01*
X104736011Y-66803507D01*
X104768195Y-66767140D01*
X104817145Y-66722344D01*
X104917167Y-66638005D01*
X104974863Y-66709925D01*
X105032560Y-66781846D01*
X105665665Y-66781846D01*
X105751638Y-66781883D01*
X105910841Y-66782283D01*
X106036514Y-66783263D01*
X106132448Y-66784998D01*
X106202436Y-66787665D01*
X106250270Y-66791438D01*
X106279742Y-66796494D01*
X106294645Y-66803007D01*
X106298770Y-66811154D01*
X106296532Y-66819139D01*
X106282428Y-66828197D01*
X106250668Y-66834339D01*
X106195899Y-66838086D01*
X106112769Y-66839954D01*
X105995923Y-66840461D01*
X105947100Y-66840541D01*
X105842180Y-66841669D01*
X105769369Y-66844487D01*
X105723617Y-66849450D01*
X105699870Y-66857009D01*
X105693077Y-66867618D01*
X105695457Y-66887454D01*
X105704194Y-66939305D01*
X105717611Y-67012252D01*
X105733866Y-67096749D01*
X105751114Y-67183244D01*
X105767512Y-67262190D01*
X105781215Y-67324038D01*
X105784050Y-67334650D01*
X105793076Y-67350393D01*
X105812580Y-67360199D01*
X105849711Y-67365467D01*
X105911618Y-67367600D01*
X106005452Y-67368000D01*
X106086604Y-67368470D01*
X106153194Y-67370764D01*
X106191666Y-67375759D01*
X106207991Y-67384319D01*
X106208143Y-67397307D01*
X106207042Y-67399765D01*
X106191456Y-67412940D01*
X106156785Y-67421172D01*
X106096382Y-67425413D01*
X106003602Y-67426615D01*
X105948742Y-67427220D01*
X105877312Y-67430193D01*
X105828289Y-67435086D01*
X105810005Y-67441269D01*
X105810004Y-67441298D01*
X105814134Y-67464332D01*
X105825709Y-67519184D01*
X105843367Y-67599639D01*
X105865743Y-67699483D01*
X105891473Y-67812500D01*
X105969884Y-68154423D01*
G37*
G36*
X108172934Y-67155781D02*
G01*
X108251218Y-67253086D01*
X108328924Y-67354745D01*
X108391982Y-67443607D01*
X108516335Y-67643005D01*
X108682084Y-67967079D01*
X108798350Y-68266769D01*
X108812427Y-68303054D01*
X108907363Y-68648103D01*
X108966894Y-68999398D01*
X108991018Y-69354109D01*
X108990181Y-69380461D01*
X108987699Y-69458615D01*
X107627385Y-69458615D01*
X107627385Y-70025230D01*
X107627385Y-70591846D01*
X107852077Y-70591846D01*
X108076770Y-70591846D01*
X108076770Y-70025230D01*
X108076770Y-69458615D01*
X108135385Y-69458615D01*
X108135385Y-70025230D01*
X108135385Y-70591846D01*
X108350308Y-70591846D01*
X108565231Y-70591846D01*
X108565231Y-70025230D01*
X108565231Y-69458615D01*
X108623846Y-69458615D01*
X108626141Y-69746807D01*
X108626257Y-69759943D01*
X108628235Y-69885066D01*
X108631612Y-70014915D01*
X108635946Y-70134888D01*
X108640795Y-70230384D01*
X108653154Y-70425769D01*
X108698206Y-70240692D01*
X108705911Y-70208189D01*
X108734874Y-70070459D01*
X108760363Y-69925703D01*
X108780714Y-69785112D01*
X108794259Y-69659878D01*
X108799335Y-69561192D01*
X108799693Y-69458615D01*
X108987699Y-69458615D01*
X108979735Y-69709410D01*
X108933045Y-70062470D01*
X108850949Y-70410463D01*
X108752400Y-70695696D01*
X108733445Y-70750559D01*
X108580534Y-71079931D01*
X108392215Y-71395750D01*
X108291618Y-71538383D01*
X108282645Y-71549230D01*
X108258401Y-71578538D01*
X108057999Y-71820800D01*
X107797856Y-72076333D01*
X107513845Y-72303366D01*
X107327136Y-72423824D01*
X107208624Y-72500284D01*
X106884851Y-72665470D01*
X106545183Y-72797309D01*
X106192277Y-72894184D01*
X105828791Y-72954481D01*
X105825603Y-72954835D01*
X105714497Y-72962879D01*
X105576831Y-72966572D01*
X105423530Y-72966198D01*
X105265518Y-72962039D01*
X105113720Y-72954380D01*
X104979060Y-72943503D01*
X104872462Y-72929691D01*
X104572457Y-72866185D01*
X104214910Y-72756058D01*
X103875303Y-72612090D01*
X103555180Y-72435157D01*
X103256087Y-72226132D01*
X102979568Y-71985891D01*
X102727169Y-71715307D01*
X102690608Y-71671102D01*
X102630388Y-71589058D01*
X102899077Y-71589058D01*
X102906602Y-71609609D01*
X102939911Y-71656936D01*
X102996529Y-71722259D01*
X103072847Y-71801172D01*
X103143614Y-71870050D01*
X103212512Y-71934728D01*
X103269696Y-71986010D01*
X103307309Y-72016675D01*
X103368000Y-72059891D01*
X103368000Y-71804561D01*
X103368000Y-71549230D01*
X103133539Y-71549230D01*
X103060864Y-71549381D01*
X102985330Y-71550650D01*
X102937868Y-71554150D01*
X102911995Y-71560984D01*
X102901226Y-71572253D01*
X102899077Y-71589058D01*
X102630388Y-71589058D01*
X102472372Y-71373774D01*
X102289132Y-71062815D01*
X102158874Y-70780468D01*
X102410616Y-70780468D01*
X102415333Y-70841505D01*
X102431516Y-70906876D01*
X102461761Y-70980953D01*
X102508663Y-71069183D01*
X102574816Y-71177010D01*
X102662815Y-71309883D01*
X102694257Y-71354833D01*
X102739796Y-71414732D01*
X102775818Y-71455819D01*
X102796500Y-71471075D01*
X102803092Y-71466209D01*
X102810137Y-71442104D01*
X102815208Y-71394334D01*
X102818540Y-71319049D01*
X102820367Y-71212400D01*
X102820923Y-71070538D01*
X102820923Y-70670000D01*
X102615770Y-70670000D01*
X102410616Y-70670000D01*
X102410616Y-70689538D01*
X102410616Y-70780468D01*
X102158874Y-70780468D01*
X102140526Y-70740697D01*
X102122845Y-70689538D01*
X102322693Y-70689538D01*
X102326703Y-70695385D01*
X102343384Y-70709077D01*
X102345334Y-70708569D01*
X102352000Y-70689538D01*
X102351205Y-70684183D01*
X102331309Y-70670000D01*
X102324242Y-70671534D01*
X102322693Y-70689538D01*
X102122845Y-70689538D01*
X102026196Y-70409894D01*
X101945779Y-70072877D01*
X101898917Y-69732120D01*
X101887987Y-69458615D01*
X102078462Y-69458615D01*
X102078820Y-69561192D01*
X102082244Y-69635870D01*
X102093886Y-69747673D01*
X102112261Y-69876313D01*
X102135793Y-70013837D01*
X102162910Y-70152289D01*
X102192037Y-70283716D01*
X102221601Y-70400164D01*
X102250026Y-70493679D01*
X102275740Y-70556307D01*
X102291536Y-70576396D01*
X102323380Y-70591846D01*
X102410616Y-70591846D01*
X102615770Y-70591846D01*
X102820923Y-70591846D01*
X102820923Y-70025230D01*
X102820923Y-69458615D01*
X102899077Y-69458615D01*
X102899077Y-70015461D01*
X102899077Y-70591846D01*
X103133539Y-70591846D01*
X103368000Y-70591846D01*
X103368000Y-70015461D01*
X103368000Y-69439077D01*
X103133539Y-69439077D01*
X102899077Y-69439077D01*
X102899077Y-69458615D01*
X102436006Y-69458615D01*
X102423311Y-69637463D01*
X102419607Y-69706570D01*
X102416013Y-69811239D01*
X102413165Y-69935774D01*
X102411291Y-70070084D01*
X102410616Y-70204078D01*
X102410616Y-70591846D01*
X102323380Y-70591846D01*
X102330720Y-70588464D01*
X102337565Y-70573783D01*
X102342809Y-70543770D01*
X102346651Y-70494468D01*
X102349291Y-70421921D01*
X102350929Y-70322170D01*
X102351766Y-70191259D01*
X102352000Y-70025230D01*
X102352000Y-69458615D01*
X102215231Y-69458615D01*
X102078462Y-69458615D01*
X101887987Y-69458615D01*
X101887152Y-69437710D01*
X103446154Y-69437710D01*
X103446154Y-69439077D01*
X103446154Y-70014778D01*
X103446154Y-70591846D01*
X103651603Y-70591846D01*
X103857052Y-70591846D01*
X103851872Y-70020346D01*
X103846693Y-69448846D01*
X103646423Y-69443278D01*
X103446154Y-69437710D01*
X101887152Y-69437710D01*
X101885249Y-69390096D01*
X101885791Y-69380461D01*
X102078462Y-69380461D01*
X102215231Y-69380461D01*
X102352000Y-69380461D01*
X102430154Y-69380461D01*
X102625539Y-69380461D01*
X102820923Y-69380461D01*
X102820923Y-68852923D01*
X102820923Y-68325384D01*
X102899077Y-68325384D01*
X102899077Y-68852923D01*
X102899077Y-69380461D01*
X103133539Y-69380461D01*
X103368000Y-69380461D01*
X103368000Y-68852923D01*
X103368000Y-68325384D01*
X103446154Y-68325384D01*
X103446154Y-68843154D01*
X103446154Y-69360923D01*
X103651308Y-69360923D01*
X103856462Y-69360923D01*
X103856462Y-68843154D01*
X103856462Y-68325384D01*
X103973693Y-68325384D01*
X103973693Y-69419538D01*
X103973693Y-70591846D01*
X103973693Y-70670000D01*
X102899077Y-70670000D01*
X102899077Y-71070538D01*
X102899077Y-71471077D01*
X103133539Y-71471077D01*
X103368000Y-71471077D01*
X103368000Y-71070538D01*
X103368000Y-70670000D01*
X103446154Y-70670000D01*
X103446154Y-71070538D01*
X103446154Y-71471077D01*
X103651308Y-71471077D01*
X103856462Y-71471077D01*
X103856462Y-71070538D01*
X103856462Y-70670000D01*
X103973693Y-70670000D01*
X103973693Y-71549230D01*
X103446154Y-71549230D01*
X103446154Y-71839441D01*
X103446154Y-72129651D01*
X103578476Y-72217639D01*
X103588868Y-72224522D01*
X103660689Y-72270814D01*
X103726390Y-72311246D01*
X103772890Y-72337737D01*
X103780632Y-72341697D01*
X103822841Y-72361700D01*
X103845722Y-72369846D01*
X103846790Y-72367821D01*
X103849873Y-72337780D01*
X103852532Y-72276223D01*
X103854616Y-72188858D01*
X103855975Y-72081394D01*
X103856462Y-71959538D01*
X103856462Y-71549230D01*
X103973693Y-71549230D01*
X103973693Y-72445135D01*
X104084493Y-72495861D01*
X104172171Y-72533895D01*
X104432096Y-72626274D01*
X104714441Y-72699796D01*
X105009231Y-72751702D01*
X105058944Y-72758004D01*
X105407542Y-72779918D01*
X105759373Y-72763931D01*
X106111143Y-72710518D01*
X106459557Y-72620154D01*
X106801320Y-72493314D01*
X106963077Y-72423824D01*
X106963077Y-71940000D01*
X107099846Y-71940000D01*
X107099877Y-71964177D01*
X107100915Y-72080554D01*
X107103256Y-72181250D01*
X107106662Y-72260417D01*
X107110897Y-72312206D01*
X107115722Y-72330769D01*
X107126563Y-72326257D01*
X107164588Y-72303967D01*
X107221524Y-72267738D01*
X107289519Y-72222849D01*
X107360720Y-72174579D01*
X107427275Y-72128208D01*
X107481332Y-72089016D01*
X107515039Y-72062282D01*
X107515434Y-72061925D01*
X107529975Y-72043272D01*
X107539735Y-72013875D01*
X107545604Y-71966655D01*
X107548473Y-71894534D01*
X107549231Y-71790433D01*
X107549231Y-71614502D01*
X107629261Y-71614502D01*
X107629748Y-71682338D01*
X107631558Y-71766493D01*
X107637154Y-71969307D01*
X107830573Y-71773923D01*
X108023991Y-71578538D01*
X107830573Y-71567489D01*
X107775907Y-71564525D01*
X107703143Y-71561167D01*
X107652155Y-71559571D01*
X107631558Y-71560059D01*
X107630096Y-71571292D01*
X107629261Y-71614502D01*
X107549231Y-71614502D01*
X107549231Y-71549230D01*
X107324539Y-71549230D01*
X107099846Y-71549230D01*
X107099846Y-71940000D01*
X106963077Y-71940000D01*
X106963077Y-70670000D01*
X107099846Y-70670000D01*
X107099846Y-71070538D01*
X107099846Y-71471077D01*
X107233889Y-71471077D01*
X107302315Y-71472357D01*
X107389299Y-71476865D01*
X107458581Y-71483502D01*
X107549231Y-71495927D01*
X107549231Y-71082963D01*
X107549231Y-70670000D01*
X107627385Y-70670000D01*
X107627385Y-71080307D01*
X107627385Y-71490615D01*
X107852077Y-71490615D01*
X108076770Y-71490615D01*
X108076770Y-71080307D01*
X108076770Y-71031461D01*
X108135385Y-71031461D01*
X108136133Y-71145208D01*
X108138219Y-71244422D01*
X108141396Y-71322787D01*
X108145418Y-71374229D01*
X108150039Y-71392670D01*
X108155443Y-71390339D01*
X108180864Y-71362627D01*
X108218933Y-71308681D01*
X108266040Y-71234860D01*
X108318578Y-71147522D01*
X108372935Y-71053025D01*
X108425503Y-70957728D01*
X108472672Y-70867988D01*
X108510833Y-70790164D01*
X108536376Y-70730614D01*
X108545693Y-70695696D01*
X108545645Y-70694652D01*
X108534480Y-70682878D01*
X108500080Y-70675284D01*
X108437187Y-70671211D01*
X108340539Y-70670000D01*
X108135385Y-70670000D01*
X108135385Y-71031461D01*
X108076770Y-71031461D01*
X108076770Y-70670000D01*
X107852077Y-70670000D01*
X107627385Y-70670000D01*
X107549231Y-70670000D01*
X107324539Y-70670000D01*
X107099846Y-70670000D01*
X106963077Y-70670000D01*
X106963077Y-70591846D01*
X107099846Y-70591846D01*
X107324539Y-70591846D01*
X107549231Y-70591846D01*
X107549231Y-70025230D01*
X107549231Y-69458615D01*
X107324539Y-69458615D01*
X107099846Y-69458615D01*
X107099846Y-70025230D01*
X107099846Y-70591846D01*
X106963077Y-70591846D01*
X106963077Y-69419639D01*
X106963077Y-68325384D01*
X107099846Y-68325384D01*
X107099846Y-68852923D01*
X107099846Y-69380461D01*
X107324539Y-69380461D01*
X107549231Y-69380461D01*
X107627385Y-69380461D01*
X107854168Y-69380461D01*
X108134747Y-69380461D01*
X108558715Y-69380461D01*
X108623846Y-69380461D01*
X108711770Y-69380461D01*
X108799693Y-69380461D01*
X108799311Y-69287654D01*
X108797278Y-69231816D01*
X108788348Y-69130297D01*
X108773601Y-69012424D01*
X108754444Y-68886087D01*
X108732283Y-68759173D01*
X108708524Y-68639572D01*
X108684573Y-68535174D01*
X108661836Y-68453866D01*
X108641720Y-68403538D01*
X108637898Y-68408764D01*
X108633593Y-68447275D01*
X108629945Y-68517484D01*
X108627104Y-68615297D01*
X108625219Y-68736616D01*
X108624441Y-68877346D01*
X108623846Y-69380461D01*
X108558715Y-69380461D01*
X108549846Y-68867577D01*
X108547507Y-68737062D01*
X108545110Y-68612723D01*
X108542892Y-68506884D01*
X108540967Y-68424686D01*
X108539448Y-68371275D01*
X108538450Y-68351792D01*
X108529347Y-68350659D01*
X108488623Y-68348197D01*
X108422884Y-68345179D01*
X108340539Y-68342023D01*
X108145154Y-68335154D01*
X108139950Y-68857807D01*
X108134922Y-69362860D01*
X108134747Y-69380461D01*
X107854168Y-69380461D01*
X107870344Y-69380452D01*
X107962655Y-69379682D01*
X108022718Y-69377065D01*
X108056501Y-69371744D01*
X108069970Y-69362860D01*
X108069091Y-69349555D01*
X108066423Y-69329853D01*
X108063451Y-69274730D01*
X108060920Y-69190758D01*
X108058955Y-69083563D01*
X108057683Y-68958774D01*
X108057231Y-68822017D01*
X108057231Y-68325384D01*
X107842308Y-68325384D01*
X107627385Y-68325384D01*
X107627385Y-68852923D01*
X107627385Y-69380461D01*
X107549231Y-69380461D01*
X107549231Y-68852923D01*
X107549231Y-68325384D01*
X107324539Y-68325384D01*
X107099846Y-68325384D01*
X106963077Y-68325384D01*
X106963077Y-67250769D01*
X107099846Y-67250769D01*
X107099846Y-67749000D01*
X107099846Y-68247230D01*
X107324539Y-68247230D01*
X107549231Y-68247230D01*
X107549231Y-68241496D01*
X107627385Y-68241496D01*
X107776871Y-68254133D01*
X107781739Y-68254541D01*
X107864415Y-68260717D01*
X107939684Y-68265102D01*
X107991794Y-68266769D01*
X108057231Y-68266769D01*
X108057231Y-67964703D01*
X108138584Y-67964703D01*
X108138637Y-68070584D01*
X108139620Y-68156254D01*
X108141470Y-68215428D01*
X108144123Y-68241818D01*
X108151648Y-68249720D01*
X108185787Y-68259534D01*
X108250390Y-68265046D01*
X108349695Y-68266769D01*
X108545693Y-68266769D01*
X108545693Y-68191346D01*
X108544084Y-68173126D01*
X108526073Y-68106392D01*
X108490716Y-68016750D01*
X108441313Y-67911004D01*
X108381167Y-67795960D01*
X108313580Y-67678421D01*
X108241853Y-67565192D01*
X108145154Y-67420462D01*
X108139851Y-67818665D01*
X108139523Y-67844899D01*
X108138584Y-67964703D01*
X108057231Y-67964703D01*
X108057231Y-67796561D01*
X108057201Y-67765963D01*
X108056033Y-67614691D01*
X108053282Y-67487592D01*
X108049095Y-67388389D01*
X108043620Y-67320804D01*
X108037005Y-67288561D01*
X108027245Y-67274551D01*
X108007148Y-67262082D01*
X107971473Y-67254879D01*
X107912394Y-67251567D01*
X107822082Y-67250769D01*
X107627385Y-67250769D01*
X107627385Y-67746133D01*
X107627385Y-68241496D01*
X107549231Y-68241496D01*
X107549231Y-67749000D01*
X107549231Y-67250769D01*
X107324539Y-67250769D01*
X107099846Y-67250769D01*
X106963077Y-67250769D01*
X106963077Y-67172615D01*
X107099846Y-67172615D01*
X107324539Y-67172615D01*
X107549231Y-67172615D01*
X107627385Y-67172615D01*
X107774611Y-67172615D01*
X107804460Y-67172545D01*
X107866837Y-67171001D01*
X107899467Y-67166027D01*
X107909268Y-67155781D01*
X107903158Y-67138423D01*
X107896452Y-67127936D01*
X107855616Y-67081060D01*
X107783951Y-67011752D01*
X107681116Y-66919675D01*
X107627385Y-66872726D01*
X107627385Y-67022671D01*
X107627385Y-67172615D01*
X107549231Y-67172615D01*
X107549231Y-66988641D01*
X107549231Y-66804668D01*
X107475962Y-66747596D01*
X107431981Y-66714473D01*
X107362739Y-66664972D01*
X107288816Y-66614259D01*
X107219271Y-66568401D01*
X107163161Y-66533466D01*
X107129543Y-66515522D01*
X107127258Y-66514769D01*
X107116964Y-66516913D01*
X107109573Y-66533097D01*
X107104627Y-66568329D01*
X107101664Y-66627614D01*
X107100224Y-66715959D01*
X107099846Y-66838371D01*
X107099846Y-67172615D01*
X106963077Y-67172615D01*
X106963077Y-66415454D01*
X106772577Y-66336681D01*
X106583577Y-66262080D01*
X106406237Y-66201177D01*
X106236636Y-66154136D01*
X106061842Y-66117392D01*
X105868923Y-66087375D01*
X105638313Y-66065550D01*
X105317447Y-66063203D01*
X104993420Y-66090973D01*
X104674443Y-66147684D01*
X104368730Y-66232157D01*
X104084493Y-66343215D01*
X103973693Y-66393941D01*
X103973693Y-67172615D01*
X103973693Y-67250769D01*
X103446154Y-67250769D01*
X103446154Y-67749000D01*
X103446154Y-68247230D01*
X103651308Y-68247230D01*
X103856462Y-68247230D01*
X103856462Y-67749000D01*
X103856462Y-67250769D01*
X103973693Y-67250769D01*
X103973693Y-68325384D01*
X102430154Y-68325384D01*
X102430154Y-68852923D01*
X102430154Y-69380461D01*
X102352000Y-69380461D01*
X102352000Y-68852923D01*
X102352000Y-68325384D01*
X102307079Y-68325384D01*
X102284285Y-68328912D01*
X102264932Y-68343253D01*
X102246850Y-68373871D01*
X102227586Y-68426232D01*
X102204687Y-68505797D01*
X102175701Y-68618030D01*
X102159688Y-68687071D01*
X102135457Y-68811176D01*
X102113522Y-68945278D01*
X102095618Y-69077387D01*
X102083481Y-69195509D01*
X102078843Y-69287654D01*
X102078462Y-69380461D01*
X101885791Y-69380461D01*
X101904415Y-69049276D01*
X101956055Y-68712134D01*
X102039808Y-68381143D01*
X102091337Y-68237331D01*
X102300471Y-68237331D01*
X102321376Y-68247230D01*
X102330006Y-68246034D01*
X102346816Y-68225462D01*
X102351406Y-68173961D01*
X102349338Y-68141340D01*
X102340326Y-68124780D01*
X102324989Y-68145604D01*
X102304201Y-68203269D01*
X102300471Y-68237331D01*
X102091337Y-68237331D01*
X102155314Y-68058775D01*
X102175367Y-68016284D01*
X102421916Y-68016284D01*
X102425390Y-68095807D01*
X102430053Y-68173961D01*
X102434425Y-68247230D01*
X102627674Y-68247230D01*
X102820923Y-68247230D01*
X102899077Y-68247230D01*
X103133539Y-68247230D01*
X103368000Y-68247230D01*
X103368000Y-67749000D01*
X103368000Y-67250769D01*
X103133539Y-67250769D01*
X102899077Y-67250769D01*
X102899077Y-67749000D01*
X102899077Y-68247230D01*
X102820923Y-68247230D01*
X102820923Y-67786923D01*
X102820700Y-67710237D01*
X102819271Y-67586068D01*
X102816676Y-67481922D01*
X102813098Y-67402561D01*
X102808717Y-67352750D01*
X102803718Y-67337250D01*
X102796434Y-67343845D01*
X102767881Y-67379242D01*
X102725994Y-67437462D01*
X102675582Y-67511262D01*
X102621455Y-67593398D01*
X102568424Y-67676626D01*
X102521299Y-67753702D01*
X102484889Y-67817384D01*
X102465836Y-67853161D01*
X102438760Y-67910772D01*
X102425246Y-67959876D01*
X102421916Y-68016284D01*
X102175367Y-68016284D01*
X102302213Y-67747504D01*
X102480146Y-67449801D01*
X102688751Y-67168140D01*
X102699464Y-67156340D01*
X102969738Y-67156340D01*
X102980950Y-67165271D01*
X103012620Y-67170156D01*
X103070955Y-67172202D01*
X103162159Y-67172615D01*
X103368000Y-67172615D01*
X103368000Y-66974838D01*
X103368087Y-66949965D01*
X103368636Y-66875983D01*
X103366091Y-66827716D01*
X103355893Y-66804959D01*
X103333483Y-66807509D01*
X103294300Y-66835162D01*
X103233786Y-66887712D01*
X103147380Y-66964957D01*
X103102509Y-67005598D01*
X103042754Y-67062510D01*
X102998065Y-67108517D01*
X102975731Y-67136340D01*
X102972779Y-67142154D01*
X102969738Y-67156340D01*
X102699464Y-67156340D01*
X102927668Y-66904993D01*
X103144808Y-66709425D01*
X103446154Y-66709425D01*
X103446154Y-66875983D01*
X103446154Y-66941020D01*
X103446154Y-67172615D01*
X103651308Y-67172615D01*
X103856462Y-67172615D01*
X103856462Y-66820923D01*
X103855972Y-66716075D01*
X103854466Y-66617328D01*
X103852130Y-66539162D01*
X103849153Y-66487741D01*
X103845722Y-66469230D01*
X103841619Y-66469756D01*
X103805221Y-66484711D01*
X103744834Y-66517480D01*
X103667053Y-66564308D01*
X103578476Y-66621437D01*
X103446154Y-66709425D01*
X103144808Y-66709425D01*
X103196538Y-66662834D01*
X103495000Y-66444134D01*
X103543884Y-66412564D01*
X103858883Y-66235843D01*
X104195233Y-66090786D01*
X104550264Y-65978412D01*
X104921308Y-65899739D01*
X104931723Y-65898132D01*
X105028071Y-65888012D01*
X105152557Y-65880864D01*
X105295655Y-65876684D01*
X105447836Y-65875469D01*
X105599574Y-65877214D01*
X105741340Y-65881915D01*
X105863606Y-65889568D01*
X105956846Y-65900170D01*
X106099539Y-65925814D01*
X106441408Y-66010500D01*
X106769654Y-66124645D01*
X107075587Y-66265412D01*
X107102408Y-66279564D01*
X107230749Y-66350197D01*
X107347745Y-66420696D01*
X107461268Y-66496534D01*
X107579190Y-66583189D01*
X107709384Y-66686136D01*
X107859720Y-66810849D01*
X107860703Y-66811680D01*
X107918334Y-66866391D01*
X107992422Y-66945282D01*
X108076746Y-67040959D01*
X108165085Y-67146025D01*
X108172934Y-67155781D01*
G37*
M02*
