M48
; DRILL file {KiCad (7.0.0)} date Thu Sep  7 17:01:58 2023
; FORMAT={-:-/ absolute / metric / decimal}
; #@! TF.CreationDate,2023-09-07T17:01:58+09:00
; #@! TF.GenerationSoftware,Kicad,Pcbnew,(7.0.0)
; #@! TF.FileFunction,Plated,1,2,PTH
FMAT,2
METRIC
; #@! TA.AperFunction,Plated,PTH,ViaDrill
T1C0.400
; #@! TA.AperFunction,Plated,PTH,ComponentDrill
T2C0.800
; #@! TA.AperFunction,Plated,PTH,ComponentDrill
T3C0.813
; #@! TA.AperFunction,Plated,PTH,ComponentDrill
T4C1.300
; #@! TA.AperFunction,Plated,PTH,ComponentDrill
T5C1.500
%
G90
G05
T1
X101.103Y-42.131
T3
X51.58Y-37.6
X51.58Y-52.82
X54.12Y-37.6
X54.12Y-52.82
X56.66Y-37.6
X56.66Y-52.82
X59.2Y-37.6
X59.2Y-52.82
X61.74Y-37.6
X61.74Y-52.82
X64.28Y-37.6
X64.28Y-52.82
X66.82Y-37.6
X66.82Y-52.82
X69.36Y-37.6
X69.36Y-52.82
X71.9Y-37.6
X71.9Y-52.82
X72.6Y-66.6
X72.615Y-61.2
X74.44Y-37.6
X74.44Y-52.82
X76.98Y-37.6
X76.98Y-52.82
X79.52Y-37.6
X79.52Y-52.82
X80.22Y-66.6
X80.235Y-61.2
X85.8Y-41.365
X85.8Y-48.985
X90.415Y-52.6
X98.035Y-52.6
X102.615Y-52.6
X110.235Y-52.6
X118.24Y-71.438
X125.86Y-71.438
T4
X107.156Y-40.481
X107.156Y-46.981
T5
X117.49Y-52.56
X123.84Y-50.02
T2
G00X52.981Y-43.021
M15
G01X53.381Y-43.021
M16
G05
G00X57.744Y-62.071
M15
G01X58.144Y-62.071
M16
G05
G00X59.331Y-40.481
M15
G01X59.731Y-40.481
M16
G05
G00X64.094Y-59.531
M15
G01X64.494Y-59.531
M16
G05
G00X72.031Y-43.021
M15
G01X72.431Y-43.021
M16
G05
G00X78.381Y-40.481
M15
G01X78.781Y-40.481
M16
G05
G00X88.7Y-62.071
M15
G01X89.1Y-62.071
M16
G05
G00X91.09Y-43.02
M15
G01X91.49Y-43.02
M16
G05
G00X95.05Y-59.531
M15
G01X95.45Y-59.531
M16
G05
G00X97.44Y-40.48
M15
G01X97.84Y-40.48
M16
G05
T0
M30
